<?xml version="1.0" standalone="no"?>
<!DOCTYPE svg PUBLIC "-//W3C//DTD SVG 20010904//EN"
 "http://www.w3.org/TR/2001/REC-SVG-20010904/DTD/svg10.dtd">
<svg version="1.0" xmlns="http://www.w3.org/2000/svg"
 width="1024.000000pt" height="1024.000000pt" viewBox="0 0 1024.000000 1024.000000"
 preserveAspectRatio="xMidYMid meet">

<g transform="translate(0.000000,1024.000000) scale(0.100000,-0.100000)"
fill="#000000" stroke="none">
<path d="M5259 9213 l-35 -4 -2 -98 c-2 -86 0 -101 19 -124 20 -27 22 -27 152
-28 208 -1 281 -10 311 -38 33 -31 35 -87 5 -120 -21 -22 -21 -22 -257 -15
-450 12 -865 -54 -1302 -208 -720 -253 -1349 -730 -1822 -1380 -439 -602 -658
-1258 -675 -2020 -10 -449 39 -797 171 -1201 308 -945 952 -1687 1867 -2152
416 -211 874 -343 1333 -385 137 -12 552 -12 671 1 297 31 489 71 740 154 468
155 905 401 1255 705 104 91 125 103 154 96 41 -10 66 -41 66 -82 0 -42 -12
-55 -190 -199 -449 -362 -950 -615 -1495 -755 -229 -59 -626 -110 -852 -110
-97 0 -106 -2 -128 -25 -27 -26 -30 -53 -19 -164 l7 -61 101 0 c324 0 748 63
1082 161 696 203 1301 566 1800 1080 137 141 213 230 330 386 415 553 663
1180 765 1928 30 221 37 691 14 915 -41 402 -130 775 -272 1135 -64 165 -208
461 -287 593 -441 734 -1092 1311 -1876 1663 -420 188 -962 324 -1371 344 -63
3 -139 7 -169 8 -30 2 -71 2 -91 0z m1120 -428 c387 -127 641 -248 948 -451
155 -103 386 -283 403 -314 19 -35 12 -77 -16 -99 -44 -34 -76 -27 -146 32
-376 318 -833 556 -1363 712 -99 29 -135 57 -135 104 0 38 44 81 81 81 16 0
118 -29 228 -65z m-755 -280 c245 -29 566 -104 566 -133 0 -8 -18 -54 -41
-101 -57 -122 -66 -159 -48 -207 10 -27 26 -45 51 -58 31 -17 41 -18 76 -8 48
14 56 27 127 180 50 110 55 117 82 116 37 -2 243 -94 243 -109 0 -6 -49 -90
-108 -186 -250 -402 -307 -498 -299 -506 3 -3 21 -8 39 -12 54 -11 73 -56 73
-178 0 -56 1 -101 2 -100 0 1 128 192 282 425 258 387 283 422 301 412 20 -11
148 -97 163 -110 7 -7 -45 -91 -78 -126 -13 -14 -33 -40 -153 -204 -55 -74
-134 -180 -175 -235 -302 -397 -407 -549 -407 -586 0 -5 11 -14 25 -19 15 -6
27 -20 31 -37 4 -15 13 -40 21 -55 16 -34 53 -37 99 -9 17 10 130 144 250 297
452 572 631 794 642 794 4 0 49 -42 101 -94 l93 -93 -79 -84 c-44 -46 -120
-129 -169 -184 -49 -55 -93 -105 -99 -111 -5 -6 -39 -44 -75 -84 -111 -125
-246 -267 -450 -472 -162 -162 -195 -200 -188 -215 5 -10 1 -7 -9 7 -46 65
-108 121 -145 132 l-40 12 -48 -55 c-27 -30 -49 -56 -49 -59 0 -3 35 -43 79
-89 73 -79 81 -85 122 -87 23 -1 47 3 51 10 5 6 6 3 2 -9 -4 -11 -8 -24 -9
-30 -1 -5 -9 -29 -16 -53 -12 -39 -11 -47 9 -98 23 -53 23 -55 5 -69 -11 -8
-27 -17 -36 -20 -9 -3 -20 -15 -23 -26 -10 -30 -20 -23 -43 29 -45 100 -150
232 -262 330 -41 37 -75 71 -74 77 1 6 26 45 56 86 65 87 92 139 125 234 103
304 51 652 -136 898 -27 36 -47 68 -45 71 2 3 1 4 -2 1 -4 -2 -37 24 -74 58
-120 114 -299 208 -459 242 -105 22 -313 20 -423 -5 -297 -65 -582 -297 -689
-560 -56 -138 -74 -232 -73 -385 0 -110 5 -160 22 -230 26 -106 114 -288 173
-360 l41 -49 -34 -30 c-148 -129 -224 -222 -314 -381 -15 -27 -29 -44 -32 -37
-2 6 -10 12 -18 12 -8 0 -14 7 -14 16 0 9 5 12 12 8 7 -4 8 -3 4 5 -6 9 -11 9
-21 1 -10 -8 -16 -7 -24 7 -7 13 -10 14 -11 4 0 -8 -2 -12 -6 -9 -3 3 4 21 15
39 43 71 11 149 -61 149 -59 0 -57 -1 -753 679 -104 102 -258 253 -342 334
l-151 148 66 73 c37 40 83 87 103 104 l36 31 70 -77 c225 -248 713 -811 783
-902 18 -25 65 -82 103 -128 51 -62 68 -89 64 -104 -10 -35 4 -78 35 -109 56
-56 118 -32 177 69 22 38 59 86 83 108 l44 40 -41 56 c-22 31 -84 111 -139
178 -83 102 -274 353 -384 505 -16 22 -114 155 -219 295 -104 140 -198 269
-208 285 -10 17 -25 36 -33 42 -17 14 -7 24 93 94 l51 36 295 -443 c289 -437
398 -597 422 -621 9 -10 12 11 13 92 1 78 5 110 18 129 9 14 16 31 16 39 0 7
-66 123 -146 257 -80 135 -196 328 -256 430 -61 102 -119 199 -130 216 l-18
32 62 32 c35 18 86 45 113 60 65 34 270 118 410 168 l110 39 10 -30 c6 -17 22
-39 38 -51 26 -19 30 -19 69 -6 50 18 71 50 63 101 l-5 36 78 16 c104 22 260
47 357 56 143 14 482 12 619 -4z m-2355 -728 c-2 -1 -13 -9 -24 -17 -19 -14
-19 -14 -6 3 7 9 18 17 24 17 6 0 8 -1 6 -3z m2252 -30 c297 -101 502 -377
498 -671 l-1 -81 -10 60 c-5 33 -13 62 -17 65 -5 3 -16 19 -25 35 -15 27 -16
27 -11 5 4 -16 -5 -7 -26 25 -43 68 -56 79 -29 25 44 -87 62 -214 41 -289 -5
-20 -11 -13 -34 49 -64 162 -139 254 -280 339 -74 44 -90 51 -116 44 l-30 -8
25 -12 c22 -10 25 -10 20 3 -8 20 8 17 28 -5 13 -14 14 -21 5 -27 -8 -5 -10
-3 -4 6 6 10 4 12 -8 7 -17 -7 -87 10 -87 21 0 4 -28 8 -62 10 -36 1 -72 9
-86 18 -24 16 -74 15 -162 -2 l-25 -4 25 11 c14 6 39 15 55 20 26 7 23 8 -14
5 -24 -3 -57 -14 -72 -25 -31 -23 -49 -27 -49 -11 0 6 7 10 17 10 9 0 13 3 10
6 -8 8 -94 -29 -165 -72 -23 -13 -31 -25 -28 -37 4 -15 0 -18 -18 -13 -19 5
-35 -7 -89 -63 -79 -82 -132 -185 -143 -280 -3 -34 -10 -64 -14 -66 -13 -8
-31 125 -33 236 -1 103 -1 104 -13 54 -7 -27 -13 -81 -14 -120 -2 -67 -3 -68
-10 -25 -19 113 10 282 69 398 71 141 175 244 316 313 131 64 208 80 360 76
107 -3 143 -9 206 -30z m2650 -149 c165 -200 344 -461 451 -658 20 -36 47 -86
61 -112 14 -26 51 -102 80 -170 188 -425 289 -852 322 -1360 6 -95 5 -98 -19
-123 -33 -33 -88 -34 -120 -2 -21 21 -24 36 -30 148 -44 801 -341 1540 -873
2172 -40 48 -78 99 -84 114 -22 59 41 122 101 102 15 -6 64 -55 111 -111z
m-3024 -254 c-3 -3 -12 -4 -19 -1 -8 3 -5 6 6 6 11 1 17 -2 13 -5z m2749 -105
c37 -50 65 -91 63 -92 -21 -14 -89 -66 -109 -83 -44 -38 -225 -188 -270 -224
-24 -19 -90 -74 -146 -122 -56 -47 -133 -102 -170 -121 -122 -61 -198 -126
-277 -234 -21 -29 -42 -53 -46 -53 -14 0 -91 -72 -86 -80 3 -5 -9 -12 -27 -15
-80 -17 -117 -59 -119 -132 -1 -34 -2 -35 -9 -13 l-8 25 -8 -24 c-7 -23 -8
-24 -15 -5 -6 15 -8 12 -8 -13 -2 -61 -19 -43 -24 24 -3 38 -8 80 -12 94 -6
24 5 39 107 143 62 64 111 118 108 121 -8 7 32 31 65 39 22 6 151 129 465 441
326 326 438 431 447 423 7 -5 42 -50 79 -99z m-2929 58 c-15 -5 -25 -12 -22
-17 3 -4 -2 -10 -10 -14 -8 -3 -15 -1 -15 5 0 17 43 47 59 41 11 -4 7 -8 -12
-15z m638 3 c3 -5 1 -10 -4 -10 -6 0 -11 5 -11 10 0 6 2 10 4 10 3 0 8 -4 11
-10z m-125 -72 c129 -47 250 -151 282 -240 6 -16 14 -28 19 -28 5 0 9 -31 9
-70 0 -38 -3 -70 -7 -70 -5 1 -25 24 -45 53 -122 169 -240 236 -434 245 -114
5 -194 -11 -284 -56 -73 -36 -170 -133 -208 -207 l-31 -60 0 80 c-1 84 10 112
79 204 25 33 104 92 170 126 113 59 322 70 450 23z m255 -36 c-6 -7 -34 11
-29 19 3 5 11 3 19 -4 7 -6 12 -13 10 -15z m-3052 -303 c83 -67 178 -142 210
-167 31 -25 57 -46 57 -47 0 -10 -82 4 -110 19 -51 28 -314 207 -318 217 -2 5
-9 9 -16 9 -31 0 -35 23 -8 56 15 19 28 34 30 34 1 0 71 -54 155 -121z m418
-56 c13 -16 12 -17 -3 -4 -10 7 -18 15 -18 17 0 8 8 3 21 -13z m-663 -65 c119
-77 189 -117 214 -123 32 -8 34 -14 48 -195 5 -69 13 -143 17 -164 6 -36 4
-39 -13 -32 -10 4 -98 36 -194 71 -215 78 -282 104 -297 116 -8 7 3 40 44 122
48 98 124 237 129 237 1 0 25 -15 52 -32z m5811 -67 c49 -88 112 -216 125
-257 4 -13 2 -21 -6 -22 -11 0 -250 -94 -313 -122 -11 -5 -37 -16 -58 -26 -21
-9 -39 -15 -42 -13 -2 2 1 54 6 114 5 61 7 146 4 190 l-6 80 30 15 c52 27 191
111 197 121 3 5 7 9 9 9 2 0 26 -40 54 -89z m-5175 -207 c217 -44 409 -190
461 -352 24 -71 17 -174 -15 -231 -26 -44 -27 -45 -50 -31 -12 7 -12 12 -2 22
9 9 12 8 12 -6 0 -9 5 -14 10 -11 8 5 8 11 1 19 -6 7 -7 17 -3 22 4 4 0 3 -10
-4 -14 -11 -17 -10 -21 5 -3 10 -4 5 -4 -12 0 -16 6 -37 13 -45 11 -13 10 -16
-4 -17 -14 -1 -17 7 -16 45 1 86 3 91 20 62 15 -25 15 -25 9 10 -5 26 -4 31 4
20 21 -29 11 10 -14 60 -18 35 -29 48 -40 44 -11 -5 -13 -2 -9 11 12 30 -114
138 -220 189 -86 41 -143 66 -150 66 -2 0 -6 -6 -9 -13 -4 -10 2 -13 19 -9 14
2 24 0 24 -7 0 -6 9 -11 20 -11 11 0 20 -7 20 -15 0 -11 11 -15 36 -15 21 0
47 -8 61 -20 14 -11 23 -20 20 -20 -3 0 -14 -3 -24 -6 -15 -5 -15 -4 -3 4 12
9 9 13 -15 22 -16 6 -40 9 -54 7 l-26 -3 31 -15 c24 -11 30 -18 25 -34 -4 -11
-6 -27 -5 -35 1 -8 2 -33 3 -55 1 -33 7 -44 31 -60 16 -11 29 -24 28 -30 -1
-5 2 -18 7 -29 5 -11 3 -21 -5 -26 -9 -6 -6 -10 10 -15 17 -5 27 -3 35 9 16
21 44 20 61 -1 13 -17 14 -17 8 2 -3 11 4 3 16 -18 11 -21 25 -35 30 -32 6 4
10 1 10 -4 0 -6 -4 -11 -10 -11 -5 0 -7 -6 -4 -14 12 -31 -37 -36 -131 -14
-53 12 -107 41 -157 86 -16 15 -34 27 -38 27 -5 0 -15 7 -22 15 -11 12 -11 12
7 0 16 -13 16 -10 -4 18 -15 22 -29 31 -39 27 -11 -4 -12 -2 -4 7 7 9 3 23
-14 48 -13 19 -24 30 -24 25 0 -6 7 -19 15 -29 8 -11 15 -24 15 -30 0 -5 -11
6 -25 25 -17 22 -24 42 -20 56 3 12 1 25 -5 28 -6 3 -7 -1 -4 -9 12 -31 -6
-15 -25 22 -21 41 -45 149 -56 250 l-7 63 78 -7 c44 -3 110 -13 148 -20z
m4736 17 c0 -5 -9 -7 -19 -4 -13 3 -24 -4 -36 -24 -27 -46 -115 -99 -264 -159
-189 -75 -278 -160 -341 -325 -11 -30 -20 -62 -20 -71 0 -10 -5 -18 -12 -18
-9 0 -9 -3 0 -12 15 -15 16 -32 1 -22 -26 16 -52 100 -53 174 -1 65 3 84 32
144 64 136 204 240 387 286 120 31 325 50 325 31z m-30 -118 c0 -22 -38 -102
-45 -96 -4 5 -5 2 -1 -5 17 -29 -68 -173 -155 -263 -65 -66 -129 -106 -205
-125 -64 -17 -93 -13 -49 7 131 59 279 199 362 344 28 50 56 103 62 118 9 24
31 38 31 20z m-2243 -36 c101 -36 138 -54 223 -111 104 -69 192 -156 260 -257
115 -173 175 -411 155 -615 l-9 -79 -12 110 c-17 141 -30 196 -65 272 -25 52
-107 162 -163 218 -22 22 -20 3 2 -26 53 -71 122 -259 137 -375 7 -55 -12
-211 -26 -220 -5 -3 -9 -1 -9 4 0 36 -43 252 -61 304 -105 311 -431 518 -754
478 -202 -25 -375 -120 -496 -271 -91 -113 -145 -265 -165 -459 l-8 -75 -13
55 c-9 37 -12 90 -9 161 5 122 31 212 101 347 23 46 38 81 31 79 -6 -2 -20
-22 -31 -45 -12 -26 -25 -40 -33 -37 -7 3 -10 0 -7 -5 4 -6 3 -20 -1 -32 -6
-21 -6 -21 -20 3 -10 18 -13 20 -14 7 0 -20 -16 -24 -22 -6 -3 7 -7 5 -11 -6
-4 -10 -3 -15 3 -11 14 8 12 -3 -6 -50 l-15 -40 5 40 5 40 -13 -35 c-7 -19
-11 -38 -9 -42 2 -5 0 -8 -6 -8 -17 0 -43 -142 -47 -260 -4 -136 -4 -132 -14
-100 -14 43 -11 274 4 352 18 92 64 213 113 297 80 135 264 298 408 362 28 12
88 32 135 46 76 21 101 23 235 19 129 -3 160 -7 222 -29z m-2303 -169 c-3 -5
-1 -8 4 -8 5 0 10 -11 10 -25 0 -19 -5 -24 -22 -22 -28 3 -35 14 -30 46 9 50
13 56 28 35 8 -10 12 -22 10 -26z m101 -6 c-3 -3 -18 7 -33 23 l-27 28 33 -23
c18 -12 31 -25 27 -28z m56 -59 c13 -16 12 -17 -3 -4 -10 7 -18 15 -18 17 0 8
8 3 21 -13z m-154 -9 c-3 -3 -12 -4 -19 -1 -8 3 -5 6 6 6 11 1 17 -2 13 -5z
m65 -11 c-6 -2 -10 -8 -8 -12 3 -4 -1 -8 -9 -8 -11 0 -12 4 -4 14 6 7 17 13
23 12 7 0 6 -2 -2 -6z m-277 -52 c3 -5 2 -12 -3 -15 -5 -3 -9 1 -9 9 0 17 3
19 12 6z m432 -33 c-3 -8 -6 -5 -6 6 -1 11 2 17 5 13 3 -3 4 -12 1 -19z m620
-40 c-3 -8 -6 -5 -6 6 -1 11 2 17 5 13 3 -3 4 -12 1 -19z m1408 -48 c116 -44
225 -133 302 -245 47 -69 104 -222 96 -254 -5 -20 -7 -19 -30 14 -13 19 -21
40 -17 47 4 6 3 8 -3 5 -5 -4 -29 20 -53 52 -23 33 -62 73 -86 90 -55 40 -60
49 -38 66 18 13 18 14 2 15 -10 0 -18 -4 -18 -10 0 -5 -8 -10 -17 -10 -9 0
-13 3 -10 7 4 3 -1 15 -10 25 -16 18 -16 18 1 12 14 -5 17 -3 14 7 -3 8 -9 14
-14 15 -5 0 -27 9 -49 19 -25 12 -60 18 -95 17 -30 0 -68 6 -86 14 -18 9 -47
14 -66 11 -30 -3 -30 -4 9 -5 23 -1 43 -6 45 -11 2 -5 26 -16 53 -25 44 -14
45 -15 10 -8 -22 4 -75 7 -117 7 -73 0 -88 6 -43 19 11 3 -16 2 -60 -1 -44 -3
-96 -7 -115 -7 -21 -1 -34 -6 -33 -13 3 -14 -32 -27 -48 -17 -7 4 -9 3 -5 -4
6 -10 -23 -25 -50 -26 -18 -1 -106 -60 -95 -64 6 -2 11 -11 11 -19 0 -13 -3
-13 -15 -3 -9 7 -17 11 -18 9 -34 -44 -44 -66 -32 -66 8 0 13 3 11 6 -2 3 5
15 15 25 17 17 19 18 19 3 0 -9 -4 -17 -10 -17 -5 0 -10 -7 -10 -15 0 -8 -7
-15 -15 -15 -8 0 -15 -6 -15 -14 0 -8 -18 -42 -40 -75 -22 -33 -40 -63 -40
-66 0 -4 -7 -13 -15 -21 -13 -14 -15 -13 -16 8 -4 84 26 179 86 273 42 66 159
173 226 207 30 15 88 36 129 47 102 28 266 24 355 -9z m-1408 -12 c-3 -8 -6
-5 -6 6 -1 11 2 17 5 13 3 -3 4 -12 1 -19z m4477 -5 c2 -10 7 -34 11 -53 4
-19 9 -43 12 -54 3 -10 1 -16 -4 -13 -6 4 -61 -2 -124 -13 -63 -11 -127 -20
-144 -20 -71 -2 -85 -5 -86 -20 0 -8 -7 2 -15 22 -24 57 -95 71 -131 27 -16
-20 -21 -108 -7 -102 7 2 15 0 19 -6 3 -6 15 -11 26 -11 25 0 25 -16 -1 -23
-11 -3 -20 -1 -20 5 0 5 -5 6 -11 3 -17 -11 -183 -43 -196 -38 -7 3 -13 -1
-13 -8 0 -18 -17 1 -23 26 -5 19 -5 19 -12 -2 -10 -31 -18 -29 -54 12 -17 19
-36 35 -43 36 -7 0 -4 5 7 10 15 7 11 8 -20 6 -22 -3 -49 -1 -60 3 -12 4 18 9
72 12 109 6 137 21 154 78 12 41 17 44 84 55 22 4 75 21 118 37 72 29 81 30
130 20 106 -23 139 -22 227 2 47 13 88 24 92 25 4 0 9 -7 12 -16z m-6348 -28
c69 -5 103 -3 142 9 49 14 58 14 127 -4 41 -10 83 -24 93 -29 10 -5 48 -15 85
-21 64 -12 66 -13 78 -48 15 -49 54 -89 93 -96 18 -4 41 -13 52 -21 18 -14 18
-14 -3 -15 -13 0 -23 5 -23 10 0 6 -5 10 -11 10 -5 0 -7 -4 -4 -10 3 -5 -1
-10 -9 -10 -9 0 -16 -8 -16 -18 0 -20 -39 -23 -62 -5 -20 16 -66 24 -73 13 -9
-14 -26 -13 -23 2 2 6 -6 13 -17 15 -16 3 -17 2 -5 -6 11 -8 -11 -9 -74 -6
-83 4 -135 15 -69 15 76 0 96 113 23 138 -45 16 -100 -11 -100 -49 0 -27 -13
-30 -66 -15 -27 8 -80 19 -119 25 -38 6 -105 19 -149 28 l-78 16 6 40 c4 22 9
43 11 47 2 4 26 4 52 0 26 -4 89 -11 139 -15z m1474 -59 c0 -2 -7 -9 -15 -16
-13 -11 -14 -10 -9 4 5 14 24 23 24 12z m1820 -30 c0 -2 -7 -6 -15 -10 -8 -3
-15 -1 -15 4 0 6 7 10 15 10 8 0 15 -2 15 -4z m69 -32 c6 -6 -1 -11 -29 -18
-14 -3 -19 -3 -12 0 25 12 11 23 -25 19 -32 -4 -34 -3 -13 4 23 9 69 6 79 -5z
m-609 -42 c0 -4 -9 -13 -20 -20 -22 -13 -27 -3 -8 16 14 14 28 16 28 4z m1595
-22 c-3 -5 -12 -10 -18 -10 -7 0 -6 4 3 10 19 12 23 12 15 0z m-1648 -25 c0
-8 -4 -15 -9 -15 -4 0 -8 5 -8 11 0 5 -5 7 -12 3 -7 -4 -8 -3 -4 4 10 17 33
15 33 -3z m2850 -47 c-3 -8 -6 -5 -6 6 -1 11 2 17 5 13 3 -3 4 -12 1 -19z
m-2321 -207 c53 -24 116 -70 109 -81 -3 -4 3 -14 13 -21 15 -13 16 -12 3 4 -8
10 -9 17 -3 17 14 0 58 -59 54 -72 -1 -5 2 -7 6 -4 5 3 16 -2 25 -12 26 -29
67 -114 60 -125 -3 -6 -1 -7 5 -3 8 5 12 0 12 -13 0 -11 5 -23 10 -26 6 -4 10
-15 8 -24 -2 -10 3 -25 10 -33 7 -9 14 -43 15 -76 1 -33 5 -58 9 -56 11 7 4
-164 -7 -175 -8 -8 -22 -3 -48 14 -20 14 -37 23 -37 20 0 -4 -25 17 -56 47
-46 44 -67 76 -120 187 -58 121 -160 291 -184 306 -6 4 -13 -2 -17 -12 -9 -26
-70 -92 -78 -85 -4 4 -5 2 -3 -3 5 -16 -95 -164 -106 -158 -5 4 -6 1 -2 -5 12
-20 -55 -136 -110 -189 -51 -50 -156 -113 -189 -113 -20 0 -21 109 -1 212 48
250 195 441 378 493 67 19 184 12 244 -14z m-2606 -207 c177 -31 332 -91 487
-188 64 -39 95 -65 99 -81 3 -13 15 -32 27 -42 11 -10 17 -12 13 -5 -9 15 10
16 20 1 3 -6 31 -27 62 -46 31 -20 71 -50 89 -66 53 -48 104 -69 117 -48 4 5
-4 7 -16 3 -14 -3 -19 -2 -14 6 4 7 17 13 29 13 20 1 20 2 2 6 -44 9 -46 12
-35 33 9 17 21 20 80 20 97 0 272 -27 358 -56 290 -96 472 -283 561 -574 l20
-65 -39 44 c-21 25 -37 49 -34 53 3 5 0 7 -7 6 -7 -2 -13 4 -14 12 0 8 -8 14
-16 12 -15 -2 -48 26 -41 35 1 1 -1 3 -5 4 -5 0 -16 8 -25 16 -15 13 -16 19
-5 32 10 14 10 14 -4 3 -14 -10 -28 -4 -90 42 -41 29 -105 70 -144 91 -38 20
-69 41 -67 47 1 5 -2 7 -8 3 -6 -4 -41 5 -78 19 -168 64 -390 99 -577 91 l-90
-4 -87 89 c-184 185 -431 290 -689 290 -89 0 -247 -22 -276 -39 -15 -8 77 -49
272 -122 72 -26 120 -48 108 -48 -25 -1 -161 -49 -180 -64 -37 -28 28 -28 137
0 36 9 99 17 140 17 62 1 86 -4 137 -28 34 -15 72 -40 85 -55 13 -14 19 -23
14 -19 -5 5 -15 -1 -23 -12 -8 -11 -21 -20 -29 -20 -10 0 -12 -5 -8 -12 6 -10
5 -10 -7 -1 -11 9 -29 8 -79 -4 -76 -18 -194 -12 -241 13 -17 8 -37 13 -45 10
-7 -3 -13 0 -11 6 1 6 -9 17 -22 24 -13 6 -51 41 -85 76 -154 160 -366 276
-588 321 l-62 13 36 21 c60 35 208 91 300 113 172 41 367 46 548 14z m5353 5
c154 -23 325 -78 425 -136 l45 -27 -104 -29 c-87 -24 -123 -29 -224 -30 -66 0
-140 2 -165 6 -25 3 -117 9 -206 13 -143 6 -172 4 -275 -16 -62 -12 -149 -36
-192 -51 -43 -16 -84 -26 -89 -23 -7 4 -8 2 -4 -5 5 -7 -5 -17 -26 -25 -18 -8
-46 -24 -61 -36 -15 -12 -34 -19 -43 -16 -10 4 -13 2 -8 -6 5 -8 2 -9 -10 -5
-9 4 -15 3 -12 -1 9 -16 -71 -83 -91 -76 -12 4 -14 3 -6 -3 9 -6 -1 -24 -36
-63 l-49 -54 -138 -2 c-297 -4 -590 -97 -821 -261 -35 -24 -103 -85 -153 -135
l-90 -90 31 88 c40 113 68 168 117 230 116 146 264 249 432 299 88 26 376 74
466 78 34 1 57 5 51 9 -6 3 9 12 33 18 23 6 60 23 82 36 21 14 43 22 48 19 5
-3 12 0 16 6 5 8 2 10 -7 4 -33 -17 52 50 114 92 134 89 306 154 492 187 97
17 359 20 458 5z m-4293 -35 c96 -8 204 -18 239 -22 l65 -7 17 -58 c15 -50 15
-59 3 -64 -8 -3 -98 -3 -202 1 -103 3 -202 5 -220 5 -18 0 -43 7 -55 16 -12 8
-32 15 -45 15 -13 0 -20 4 -17 10 3 6 -1 7 -10 3 -22 -8 -1 -22 35 -24 14 0
19 -3 11 -6 -20 -8 -95 19 -79 29 9 5 9 8 1 8 -6 0 -20 3 -30 6 -15 5 -15 4
-3 -5 17 -12 10 -14 -14 -5 -9 3 -13 10 -10 16 3 5 0 8 -7 7 -23 -4 -53 13
-39 21 8 5 4 9 -9 13 -12 3 -19 2 -16 -2 2 -4 -15 2 -39 13 -24 12 -42 22 -41
24 3 4 180 19 240 20 28 1 129 -5 225 -14z m3184 -3 l59 -6 -114 -57 c-63 -31
-136 -61 -163 -68 -73 -17 -266 -28 -394 -22 -101 4 -112 6 -107 22 3 9 11 37
18 61 l13 44 154 16 c159 17 428 22 534 10z m-1738 -273 c18 -101 17 -238 -2
-312 -19 -75 -76 -199 -142 -309 -99 -164 -142 -272 -157 -392 -8 -58 -8 -58
-22 -31 -8 15 -12 34 -9 42 3 8 2 13 -3 10 -20 -13 -36 61 -35 164 1 133 14
169 138 389 106 186 167 328 193 443 9 43 19 76 21 73 3 -2 11 -37 18 -77z
m-1892 16 c3 -8 2 -12 -4 -9 -6 3 -10 10 -10 16 0 14 7 11 14 -7z m4646 -117
c155 -38 301 -41 417 -10 l72 19 -21 -35 c-35 -59 -50 -73 -61 -59 -6 9 -7 7
-3 -6 7 -22 -31 -69 -47 -59 -6 3 -7 1 -3 -6 11 -17 -14 -43 -33 -36 -8 3 -12
3 -8 -1 4 -4 0 -16 -10 -26 -19 -22 -41 -25 -23 -3 18 21 1 19 -40 -6 -72 -45
-140 -61 -277 -66 -86 -4 -130 -9 -126 -16 3 -6 1 -7 -6 -3 -6 4 -9 11 -6 15
2 5 -14 11 -37 15 -99 16 -289 107 -387 185 l-25 19 40 11 c61 17 138 13 274
-13 130 -26 253 -45 258 -41 3 3 -134 95 -141 95 -3 0 -31 12 -63 27 l-59 28
45 6 c67 8 132 0 270 -34z m-5978 -8 c40 -11 111 -38 157 -60 133 -64 268
-214 306 -337 6 -20 4 -21 -20 -12 -14 5 -55 16 -90 25 -63 14 -149 53 -209
94 -89 60 -233 237 -221 270 3 8 3 12 -1 8 -7 -7 -33 21 -34 36 0 5 9 6 19 2
11 -3 52 -15 93 -26z m6935 16 c12 -9 25 -31 29 -49 11 -63 -55 -501 -84 -551
-24 -40 -72 -54 -107 -31 -48 31 -49 50 -21 217 14 85 30 192 36 239 16 136
20 149 42 170 26 24 75 26 105 5z m-1639 -139 c-7 -8 -17 -12 -22 -9 -4 3 -2
9 5 14 22 13 31 11 17 -5z m102 -1 c11 -13 10 -14 -4 -9 -9 3 -16 10 -16 15 0
13 6 11 20 -6z m-1 -58 c6 -8 8 -17 5 -20 -10 -9 -45 13 -39 24 9 13 21 11 34
-4z m162 -46 c-7 -5 -11 -13 -7 -19 3 -5 0 -12 -8 -15 -8 -3 -13 0 -12 6 3 20
16 37 29 37 8 0 7 -3 -2 -9z m-86 -15 c11 -8 26 -12 35 -9 12 4 13 3 1 -5 -10
-7 -22 -6 -40 6 -35 22 -36 22 -25 22 6 0 19 -6 29 -14z m733 -16 c-30 -30
-38 -35 -38 -25 0 7 54 55 62 55 4 0 -6 -13 -24 -30z m285 -17 c-3 -27 -7 -49
-8 -50 -4 -6 -75 -11 -75 -6 0 5 80 99 87 102 2 1 0 -20 -4 -46z m-6614 -19
c1 4 10 -2 20 -15 22 -27 19 -38 -4 -19 -12 10 -15 10 -15 -1 0 -11 -2 -11
-10 1 -5 8 -9 29 -9 45 1 29 1 29 9 5 4 -14 8 -21 9 -16z m5745 -18 c10 -3 16
-9 13 -12 -3 -3 -20 3 -39 12 -18 10 -36 17 -39 17 -3 -1 -6 4 -6 12 0 11 6
10 26 -4 14 -10 35 -21 45 -25z m516 34 c-8 -5 -19 -10 -25 -10 -5 0 -3 5 5
10 8 5 20 10 25 10 6 0 3 -5 -5 -10z m-2714 -86 c-3 -8 -2 -13 3 -9 11 6 34
-63 51 -149 12 -58 14 -175 5 -231 -3 -16 -6 -35 -7 -42 -1 -7 -6 -10 -11 -6
-5 3 -7 -3 -3 -13 3 -11 -4 -37 -15 -59 -10 -22 -16 -31 -13 -20 4 11 9 41 11
68 3 26 9 47 14 47 5 0 9 7 9 15 0 8 -4 15 -10 15 -5 0 -8 14 -6 32 2 18 0 41
-4 53 -7 16 -9 12 -9 -18 -1 -27 -5 -36 -13 -31 -8 5 -9 2 -4 -12 8 -20 -23
-154 -36 -154 -4 0 -4 -7 -1 -17 5 -11 3 -14 -6 -8 -10 5 -11 2 -7 -12 3 -11
-1 -27 -10 -39 -8 -10 -12 -13 -8 -5 5 9 3 12 -5 7 -6 -4 -9 -12 -6 -17 7 -10
-25 -69 -38 -69 -4 0 -6 -4 -3 -9 3 -5 -3 -20 -15 -32 -11 -13 -18 -19 -15
-13 3 6 -1 11 -9 11 -10 0 -11 -5 -6 -16 6 -10 0 -28 -20 -57 -16 -24 -29 -49
-29 -56 -1 -7 -14 12 -30 44 -77 148 -53 311 78 533 65 111 94 171 118 247 28
85 29 87 42 62 7 -14 11 -32 8 -40z m2571 10 c-3 -3 -12 -4 -19 -1 -8 3 -5 6
6 6 11 1 17 -2 13 -5z m-4319 -59 c115 -19 190 -43 307 -100 105 -52 199 -124
386 -296 208 -192 327 -298 414 -369 132 -106 145 -124 145 -192 0 -41 -5 -54
-35 -86 -75 -83 -227 -85 -350 -5 -46 30 -106 80 -298 250 -192 170 -236 190
-411 185 l-69 -2 7 -62 c17 -143 72 -248 200 -373 99 -98 183 -156 391 -270
249 -137 324 -192 626 -461 172 -153 253 -233 278 -274 28 -47 28 -121 -1
-168 -21 -35 -85 -72 -123 -72 -44 0 -110 44 -217 142 -376 344 -529 464 -728
571 -109 59 -190 89 -370 138 -278 76 -363 120 -615 315 -218 169 -322 227
-475 265 -73 18 -109 20 -255 18 -93 -2 -173 -7 -176 -12 -3 -4 -12 -10 -20
-11 -8 -2 -22 -7 -33 -11 -31 -13 -51 8 -49 51 1 29 -1 34 -8 21 -6 -9 -7 -23
-3 -30 5 -8 4 -9 -4 -2 -31 29 -149 294 -198 445 -49 148 -64 211 -51 215 7 2
179 6 382 8 420 5 431 6 721 96 280 86 445 106 632 76z m3323 0 c46 -8 138
-31 204 -51 394 -118 429 -124 833 -125 174 -1 333 -4 353 -6 l36 -5 -19 -66
c-20 -72 -54 -117 -84 -110 -17 4 -16 6 6 17 22 9 19 10 -20 4 -25 -3 -56 -7
-70 -8 -61 -4 -67 -6 -40 -15 l25 -8 -27 -1 c-14 -1 -28 3 -30 8 -1 5 -61 0
-133 -10 -71 -11 -152 -19 -178 -19 -27 1 -47 -3 -44 -7 12 -19 -388 17 -482
43 -30 9 -66 13 -80 9 -15 -3 -21 -2 -14 3 12 8 -52 36 -102 45 -11 2 -27 7
-35 10 -49 18 -140 31 -140 19 0 -6 -12 -13 -27 -15 -16 -2 1 -2 36 1 43 3 62
1 57 -6 -3 -5 -15 -8 -25 -5 -10 3 -22 -1 -26 -8 -6 -9 1 -11 29 -6 32 5 41 2
62 -20 28 -31 32 -43 5 -19 -18 17 -81 20 -81 3 0 -4 6 -7 13 -5 20 3 58 -13
52 -23 -4 -5 -13 -5 -23 0 -28 15 -252 62 -262 56 -6 -3 -10 -4 -10 0 0 3 10
10 23 15 18 8 16 9 -13 5 -19 -3 -100 -12 -179 -20 -172 -18 -238 -35 -351
-92 -104 -52 -124 -64 -225 -131 -55 -36 -70 -43 -47 -22 19 17 32 33 30 35
-8 8 -339 -325 -333 -335 3 -5 26 -10 50 -10 37 0 57 9 132 60 48 33 108 76
133 95 288 220 520 278 612 154 104 -140 41 -319 -196 -554 -123 -122 -156
-152 -234 -208 -28 -22 -50 -43 -47 -47 3 -5 0 -12 -6 -16 -8 -4 -9 -3 -5 4
12 20 -4 14 -50 -19 -39 -29 -49 -49 -23 -49 6 0 8 4 5 9 -6 9 17 32 44 45 8
4 4 -1 -10 -13 -14 -11 -26 -25 -26 -30 -1 -6 -2 -16 -3 -23 -1 -7 -9 -4 -20
7 -19 16 -22 16 -80 -20 -34 -20 -61 -41 -61 -46 0 -6 -6 -7 -12 -3 -10 6 -10
4 0 -8 10 -13 10 -17 -2 -21 -7 -3 -19 0 -26 6 -10 9 -12 8 -7 -5 4 -12 2 -15
-9 -11 -7 3 -14 0 -14 -7 0 -6 -4 -9 -8 -6 -4 2 -14 1 -22 -5 -10 -5 -11 -9
-3 -9 7 0 10 -7 7 -15 -4 -8 -2 -15 4 -15 5 0 13 7 16 16 4 9 13 14 22 10 8
-3 12 -2 9 3 -9 15 15 25 28 12 19 -19 -30 -51 -70 -46 -18 2 -35 0 -38 -5 -8
-12 -25 -13 -25 -2 0 5 10 14 23 20 12 6 18 11 12 11 -19 1 -76 -39 -70 -49 3
-6 -1 -10 -9 -10 -9 0 -16 -4 -16 -10 0 -5 4 -10 9 -10 11 0 32 25 27 31 -3 2
13 5 34 5 40 1 40 -2 -4 -36 -12 -9 -17 -10 -12 -3 5 9 2 11 -8 7 -8 -3 -12
-12 -9 -20 7 -19 -4 -18 -37 6 -29 21 -41 16 -46 -18 -2 -10 1 -10 11 -2 14
12 45 3 45 -12 0 -6 -7 -8 -15 -5 -8 4 -17 1 -21 -5 -5 -7 -2 -8 7 -3 8 4 4
-2 -9 -14 -16 -16 -29 -20 -40 -15 -26 12 -52 12 -45 2 3 -6 -1 -14 -8 -20
-11 -7 -10 -8 5 -6 10 2 21 -2 23 -8 2 -7 -8 -11 -24 -11 -18 1 -38 -9 -54
-25 -34 -34 -27 -44 8 -12 14 13 30 24 35 24 6 0 -9 -16 -32 -35 -23 -19 -45
-35 -49 -35 -4 0 -32 30 -61 66 l-54 67 29 23 c33 27 370 267 425 304 67 44
76 75 35 115 -34 35 -93 34 -154 -2 -25 -14 -141 -95 -259 -179 l-214 -152
-39 36 c-36 35 -38 38 -21 53 14 13 292 218 429 315 34 25 54 31 100 33 227 8
521 198 637 412 l26 47 -31 7 c-72 16 -128 -9 -284 -125 -156 -117 -231 -151
-345 -158 -105 -6 -164 11 -204 59 -56 66 -41 130 46 199 24 19 126 116 228
216 238 233 315 302 422 374 142 96 307 164 458 189 87 14 280 12 371 -4z m89
-311 c0 -8 -5 -12 -10 -9 -6 4 -8 11 -5 16 9 14 15 11 15 -7z m1249 -112 c9
-22 7 -37 -8 -76 -10 -27 -25 -50 -34 -52 -10 -1 -14 3 -10 13 5 12 7 12 14 1
7 -10 9 -10 9 2 0 8 -4 21 -9 29 -10 15 -4 41 9 41 4 0 5 -12 3 -27 -4 -27 -3
-26 11 5 15 32 12 67 -5 56 -5 -3 -9 7 -9 21 0 15 -4 24 -10 20 -5 -3 -10 2
-10 11 0 16 1 16 19 0 11 -10 24 -29 30 -44z m-212 42 c-3 -3 -12 -4 -19 -1
-8 3 -5 6 6 6 11 1 17 -2 13 -5z m235 -21 c-5 -24 -6 -25 -12 -8 -6 16 2 33
16 35 1 0 -1 -12 -4 -27z m-1177 -14 c15 -15 -18 -10 -45 6 l-25 15 30 -6 c17
-4 34 -11 40 -15z m55 11 c8 -5 11 -12 7 -17 -5 -4 -11 -2 -15 4 -4 6 -16 13
-27 16 l-20 5 20 1 c11 0 27 -3 35 -9z m67 -66 c-3 -3 -12 -4 -19 -1 -8 3 -5
6 6 6 11 1 17 -2 13 -5z m28 -14 c3 -5 1 -10 -4 -10 -6 0 -11 5 -11 10 0 6 2
10 4 10 3 0 8 -4 11 -10z m1409 -51 c19 -15 26 -30 26 -55 0 -83 -217 -552
-365 -789 -83 -134 -259 -371 -285 -385 -44 -24 -94 -10 -116 32 -22 42 -13
64 59 151 195 234 372 557 528 959 17 43 40 85 52 93 30 21 70 19 101 -6z
m-574 -19 c0 -5 -5 -10 -11 -10 -5 0 -7 5 -4 10 3 6 8 10 11 10 2 0 4 -4 4
-10z m94 -5 c-4 -8 -12 -15 -20 -15 -20 0 -17 18 4 23 9 3 18 5 19 6 1 0 0 -6
-3 -14z m30 -29 c-6 -15 -24 -23 -24 -11 0 8 24 34 28 30 1 -1 0 -10 -4 -19z
m-41 -46 c-3 -11 -9 -20 -13 -20 -23 0 -70 14 -70 20 0 5 10 6 22 2 12 -3 19
-1 15 4 -3 6 7 11 23 12 24 2 27 -1 23 -18z m-105 3 c-10 -2 -28 -2 -40 0 -13
2 -5 4 17 4 22 1 32 -1 23 -4z m125 -8 c-3 -9 -8 -14 -10 -11 -3 3 -2 9 2 15
9 16 15 13 8 -4z m-525 -12 c-10 -2 -26 -2 -35 0 -10 3 -2 5 17 5 19 0 27 -2
18 -5z m125 0 c-13 -2 -33 -2 -45 0 -13 2 -3 4 22 4 25 0 35 -2 23 -4z m220 0
c-7 -2 -21 -2 -30 0 -10 3 -4 5 12 5 17 0 24 -2 18 -5z m70 -10 c-7 -2 -19 -2
-25 0 -7 3 -2 5 12 5 14 0 19 -2 13 -5z m54 -9 c-3 -3 -12 -4 -19 -1 -8 3 -5
6 6 6 11 1 17 -2 13 -5z m-264 -420 c48 -9 87 -20 87 -25 0 -18 -119 -191
-218 -314 -134 -169 -306 -345 -488 -501 -81 -68 -174 -139 -174 -131 0 2 9
29 20 61 41 119 108 253 153 303 11 13 18 25 16 28 -3 2 -39 12 -80 20 -134
29 -237 10 -418 -79 -51 -25 -151 -64 -221 -86 -300 -94 -448 -180 -639 -371
-113 -113 -226 -269 -289 -399 -25 -52 -46 -96 -47 -97 -2 -6 -226 -25 -231
-20 -10 10 97 206 181 333 262 392 558 622 925 720 399 106 493 149 760 350
74 56 164 118 200 137 151 81 291 103 463 71z m-2638 -54 c10 -11 26 -22 36
-25 11 -4 19 -10 19 -15 0 -7 -247 -193 -364 -274 -8 -5 -27 1 -54 20 -23 16
-41 31 -42 34 0 3 45 39 101 80 55 41 137 103 182 137 45 34 87 62 93 62 6 1
19 -8 29 -19z m972 -182 c2 -16 0 -19 -6 -9 -7 10 -13 11 -30 2 -11 -7 -21 -9
-21 -7 0 3 12 12 28 20 15 8 27 15 27 16 1 0 2 -10 2 -22z m-87 -28 c0 -5 -4
-10 -10 -10 -5 0 -10 5 -10 10 0 6 5 10 10 10 6 0 10 -4 10 -10z m-30 -14 c0
-3 -4 -8 -10 -11 -5 -3 -10 -1 -10 4 0 6 5 11 10 11 6 0 10 -2 10 -4z m267 -2
c-3 -3 -12 -4 -19 -1 -8 3 -5 6 6 6 11 1 17 -2 13 -5z m-37 -8 c0 -2 -7 -6
-15 -10 -8 -3 -15 -1 -15 4 0 6 7 10 15 10 8 0 15 -2 15 -4z m-275 -36 c-3 -5
-11 -10 -16 -10 -6 0 -7 5 -4 10 3 6 11 10 16 10 6 0 7 -4 4 -10z m45 -10 c0
-5 -5 -10 -11 -10 -5 0 -7 5 -4 10 3 6 8 10 11 10 2 0 4 -4 4 -10z m-3010 -31
c61 -14 74 -24 159 -118 l73 -81 -109 7 c-103 5 -205 -7 -217 -26 -2 -3 22
-48 53 -98 50 -80 128 -259 118 -270 -14 -14 -348 273 -472 406 -27 30 -65 68
-82 84 -18 17 -33 34 -33 38 0 4 43 9 95 11 92 3 95 2 95 -19 0 -12 12 -35 26
-52 22 -27 32 -31 74 -31 39 0 54 5 74 25 27 27 41 74 31 105 -13 41 3 44 115
19z m3010 7 c0 -2 -7 -6 -15 -10 -8 -3 -15 -1 -15 4 0 6 7 10 15 10 8 0 15 -2
15 -4z m-163 -36 c-1 -21 -10 -18 -13 5 -1 8 2 15 6 15 5 0 8 -9 7 -20z m-37
-11 c12 -8 10 -9 -9 -4 -15 5 -21 3 -17 -3 3 -6 2 -13 -3 -16 -7 -5 -8 11 -2
32 2 5 17 1 31 -9z m75 1 c3 -6 -1 -7 -9 -4 -18 7 -21 14 -7 14 6 0 13 -4 16
-10z m-65 -34 c0 -8 -63 -36 -82 -36 -11 0 -16 -4 -13 -10 4 -6 -1 -7 -11 -3
-15 5 -15 7 0 15 9 5 14 13 11 19 -9 13 9 11 23 -3 10 -9 16 -8 29 5 16 15 43
24 43 13z m-1961 -237 c-14 -8 1 -17 24 -14 9 2 15 -1 12 -5 -3 -5 2 -13 11
-18 15 -8 15 -10 0 -15 -10 -4 -14 -3 -11 2 6 10 -11 24 -32 27 -19 3 -40 28
-36 41 4 10 9 10 23 0 12 -7 15 -14 9 -18z m1581 -21 c0 -13 -23 -5 -28 10 -2
7 2 10 12 6 9 -3 16 -11 16 -16z m-2175 -22 c120 -54 255 -231 240 -314 -4
-23 -1 -37 10 -49 12 -12 13 -18 4 -23 -6 -5 -9 -15 -6 -24 4 -9 2 -16 -3 -16
-6 0 -10 12 -10 26 0 14 -4 23 -10 19 -5 -3 -10 -1 -10 6 0 7 -2 10 -5 7 -3
-3 2 -22 10 -42 9 -21 11 -35 6 -31 -6 3 -11 12 -11 18 0 7 -15 28 -33 47 -18
19 -48 58 -67 85 -19 28 -38 52 -41 55 -4 3 -23 31 -44 63 -20 33 -43 66 -50
75 -8 10 -30 37 -49 62 -20 25 -41 51 -48 59 -10 12 -5 13 28 7 21 -4 62 -18
89 -30z m685 8 c0 -2 -9 0 -20 6 -11 6 -20 13 -20 16 0 2 9 0 20 -6 11 -6 20
-13 20 -16z m2980 6 c0 -13 -12 -28 -69 -89 -24 -25 -37 -37 -28 -25 26 32 20
40 -8 10 -13 -14 -26 -26 -29 -26 -11 0 -61 -45 -133 -118 -58 -58 -73 -69
-73 -52 0 22 30 88 61 131 10 14 16 29 13 32 -15 15 86 91 163 123 62 25 103
31 103 14z m-2904 -61 c4 -8 0 -8 -14 0 -10 6 -29 8 -41 6 -11 -2 -21 1 -21 7
0 5 7 8 15 4 8 -3 15 -2 15 3 0 16 -13 20 -34 10 -20 -10 -20 -9 -2 5 17 14
22 13 47 -5 16 -11 31 -25 35 -30z m78 -49 c137 -98 425 -339 532 -445 118
-117 167 -178 234 -299 l33 -58 -34 7 c-19 5 -39 8 -46 8 -7 0 -10 4 -7 9 3 5
-9 6 -26 3 -18 -3 -38 -1 -46 6 -16 13 -19 33 -4 24 6 -3 9 4 8 19 -1 13 -6
22 -10 20 -5 -3 -5 -11 -1 -17 4 -7 -1 -5 -11 3 -11 8 -14 16 -7 18 6 2 11 9
11 15 0 8 -4 7 -12 -1 -18 -18 -31 -15 -23 6 5 13 4 14 -6 5 -10 -10 -9 -16 1
-28 7 -8 10 -18 6 -22 -3 -3 -6 -2 -6 4 0 5 -11 15 -25 21 -28 13 -38 66 -10
56 7 -3 -2 11 -20 31 -34 35 -45 65 -25 65 6 0 10 -5 10 -11 0 -5 5 -7 10 -4
8 5 7 11 0 20 -9 11 -16 12 -30 3 -10 -7 -16 -16 -14 -20 3 -4 0 -8 -5 -8 -6
0 -11 5 -11 11 0 5 -5 7 -10 4 -15 -9 -2 -25 20 -25 10 0 22 -5 25 -11 9 -14
-4 -27 -13 -13 -4 6 -19 14 -34 18 -25 6 -27 8 -16 31 13 28 -3 58 -17 34 -5
-8 -4 -10 3 -5 7 4 12 2 12 -3 0 -24 -56 -9 -92 24 -37 34 -54 61 -23 35 12
-10 15 -9 15 4 0 10 -4 14 -10 11 -5 -3 -10 0 -11 7 0 10 -2 10 -6 1 -5 -15
-23 -17 -23 -4 0 5 8 18 18 27 15 16 15 17 0 12 -9 -4 -19 -2 -22 5 -2 7 -5 2
-5 -10 l-1 -22 -24 24 c-14 14 -37 42 -53 62 -15 21 -34 42 -40 46 -7 4 -13
13 -13 18 0 6 7 3 16 -6 14 -13 19 -14 26 -3 7 9 8 8 4 -5 -6 -20 13 -57 30
-57 7 0 15 -10 18 -22 6 -23 7 -23 21 -4 9 12 15 14 15 7 0 -7 5 -11 11 -9 14
5 12 23 -3 24 -7 0 -19 -5 -27 -10 -12 -9 -13 -6 -7 18 6 25 5 28 -7 17 -12
-9 -17 -9 -23 1 -13 20 -13 37 -2 45 6 3 8 2 5 -3 -3 -6 -1 -16 4 -24 7 -11 8
-8 6 10 -3 20 -10 25 -31 25 -15 0 -31 7 -36 15 -14 22 -12 26 10 27 11 1 18
-2 15 -7 -10 -16 13 -20 26 -4 7 8 8 14 3 13 -21 -4 -28 2 -14 12 13 9 13 10
-1 6 -9 -3 -22 0 -28 6 -9 9 -11 8 -5 -6 5 -13 2 -16 -10 -11 -9 3 -16 1 -16
-6 0 -6 -5 -8 -11 -4 -8 5 -8 9 1 14 14 8 5 30 -11 30 -6 0 -7 -4 -4 -10 3 -6
-1 -7 -9 -4 -9 3 -16 10 -16 16 0 5 5 6 10 3 10 -6 14 15 11 44 -2 7 3 10 9 6
6 -4 8 -15 5 -26 -4 -11 -2 -19 4 -19 6 0 11 6 11 13 0 7 3 8 8 2 9 -13 42
-39 42 -33 0 2 -21 24 -46 48 -26 25 -44 40 -41 34 8 -14 -41 -6 -49 8 -10 16
5 22 21 8 24 -20 29 -4 8 24 -20 28 -38 35 -29 11 3 -8 1 -15 -4 -15 -10 0
-14 14 -11 38 1 6 -8 16 -21 21 -13 5 -34 21 -47 35 -25 27 -53 37 -32 12 10
-12 8 -13 -9 -9 -16 4 -18 8 -9 20 14 16 11 17 73 -27z m-64 -20 c0 -5 -4 -10
-10 -10 -5 0 -10 5 -10 10 0 6 5 10 10 10 6 0 10 -4 10 -10z m46 -5 c9 -8 24
-15 35 -15 10 0 19 -4 19 -10 0 -5 -5 -10 -11 -10 -15 0 -69 33 -69 42 0 12
10 10 26 -7z m2564 -13 c0 -5 -9 -19 -19 -31 -11 -13 -22 -28 -24 -34 -2 -7
-7 -9 -11 -6 -3 3 6 22 21 42 30 39 33 42 33 29z m-2590 -6 c0 -2 -7 -7 -16
-10 -8 -3 -12 -2 -9 4 6 10 25 14 25 6z m70 -37 c12 -8 10 -9 -9 -4 -17 5 -22
4 -16 -5 5 -9 4 -11 -4 -6 -6 4 -9 12 -6 17 8 12 16 11 35 -2z m4 -45 c3 -8 2
-12 -4 -9 -6 3 -10 1 -10 -6 0 -7 -2 -10 -5 -7 -5 5 4 38 10 38 2 0 6 -7 9
-16z m2443 -86 c-3 -8 -6 -5 -6 6 -1 11 2 17 5 13 3 -3 4 -12 1 -19z m-2648
-136 c87 -80 165 -182 197 -257 11 -28 12 -35 2 -30 -7 3 -5 0 5 -8 16 -14 16
-14 -7 -14 -17 0 -23 4 -19 13 3 8 0 14 -6 14 -6 0 -11 -4 -11 -10 0 -5 -5
-10 -11 -10 -5 0 -8 4 -5 8 2 4 1 14 -5 22 -7 12 -9 12 -9 -3 0 -10 -4 -16 -9
-12 -6 3 -4 20 5 40 15 38 11 44 -12 20 -9 -9 -11 -15 -4 -15 6 0 8 -4 5 -10
-10 -15 -25 -12 -32 8 -4 9 -10 19 -13 22 -4 3 -21 24 -37 48 -17 23 -33 39
-35 35 -3 -5 -3 -2 -1 5 4 18 -16 54 -27 47 -5 -3 -12 0 -16 6 -4 8 -3 9 4 5
18 -11 14 0 -14 45 -14 23 -28 38 -31 35 -4 -3 1 -14 10 -24 20 -21 22 -32 6
-32 -5 0 -8 4 -4 9 3 5 1 12 -4 15 -14 9 -21 -20 -8 -35 10 -11 9 -11 -4 -1
-16 12 -18 50 -4 71 7 13 -62 101 -79 101 -6 -1 -1 -9 11 -19 15 -12 19 -21
12 -28 -7 -7 -7 -13 2 -18 8 -5 10 -4 5 3 -11 18 3 14 22 -5 16 -16 16 -16 0
-10 -11 4 -18 2 -18 -5 0 -7 -5 -6 -15 2 -9 8 -13 21 -9 32 4 12 1 18 -8 16
-9 -2 -12 6 -11 25 1 15 -2 27 -8 27 -5 0 -9 4 -9 10 0 20 113 -58 199 -138z
m2380 116 c-5 -18 -9 -35 -9 -37 0 -2 -9 4 -20 14 -20 18 -21 18 -14 -1 6 -16
5 -17 -7 -8 -11 9 -17 9 -27 -2 -10 -11 -8 -13 17 -10 28 3 30 1 27 -30 -1
-19 -6 -37 -10 -41 -4 -5 -7 -1 -6 7 4 29 0 50 -10 50 -7 0 -7 -6 -1 -18 11
-21 -2 -52 -14 -32 -5 8 -11 5 -21 -9 -8 -11 -13 -24 -12 -28 2 -4 -1 -8 -7
-8 -5 0 -9 3 -8 7 1 3 -4 9 -12 12 -18 6 -90 -89 -79 -105 4 -7 3 -9 -3 -6
-13 8 -37 -21 -68 -83 -14 -27 -30 -50 -36 -50 -5 0 -7 -4 -4 -10 3 -5 1 -10
-4 -10 -6 0 -10 -3 -9 -7 2 -5 -4 -18 -13 -30 -15 -22 -33 -27 -153 -49 -16
-3 -33 -7 -38 -10 -4 -3 -8 -2 -8 3 1 14 38 78 44 76 12 -6 29 -3 23 3 -3 4
-2 16 4 28 9 17 7 17 -11 -4 l-22 -25 18 32 c10 18 20 30 23 28 2 -3 11 1 19
8 13 10 15 9 8 -8 -13 -31 -12 -50 2 -47 21 4 13 -7 -15 -22 l-28 -15 37 2 36
2 -14 33 c-9 23 -11 40 -4 52 5 9 7 20 4 23 -3 3 -1 8 5 12 6 3 11 1 11 -4 0
-6 4 -11 10 -11 5 0 7 7 4 15 -7 17 11 21 21 5 3 -5 13 -10 22 -10 13 0 12 5
-7 25 -19 20 -26 23 -39 12 -14 -11 -14 -10 -2 5 7 10 17 16 21 13 4 -3 13 2
20 11 11 12 15 12 21 2 7 -10 9 -10 9 0 0 6 5 12 12 12 6 0 9 -3 5 -6 -3 -4 0
-13 8 -21 24 -23 17 -38 -7 -17 l-22 19 20 -27 c15 -20 21 -23 27 -12 4 8 5
19 2 25 -4 5 -1 17 6 25 9 11 8 18 -5 33 -11 13 -14 21 -7 26 6 3 11 11 11 16
0 5 -11 2 -25 -8 -13 -10 -25 -27 -25 -37 0 -11 -3 -16 -6 -13 -4 3 -16 2 -28
-4 -11 -6 3 13 33 41 l54 52 12 -28 c11 -27 12 -28 22 -9 9 15 8 22 -5 31 -10
7 -15 14 -12 16 113 89 223 154 242 142 6 -4 8 -3 4 4 -3 5 0 13 6 15 7 3 14
6 15 6 1 1 -3 -14 -8 -31z m227 -55 c-10 -10 -19 5 -10 18 6 11 8 11 12 0 2
-7 1 -15 -2 -18z m-373 -98 c-3 -9 -8 -14 -10 -11 -3 3 -2 9 2 15 9 16 15 13
8 -4z m-146 -74 c7 -10 9 -22 6 -25 -6 -6 -32 23 -33 37 0 14 15 7 27 -12z
m100 -53 c-3 -8 -6 -5 -6 6 -1 11 2 17 5 13 3 -3 4 -12 1 -19z m-236 -27 c-6
-10 -8 -21 -6 -25 3 -3 0 -2 -7 3 -8 8 -8 14 2 26 17 21 23 19 11 -4z m-753
-26 c-6 -13 -15 -22 -21 -18 -6 3 -7 1 -3 -6 4 -6 -5 -31 -20 -56 -32 -49 -28
-52 -84 48 l-32 57 86 0 86 0 -12 -25z m-603 5 c-3 -5 -12 -10 -18 -10 -7 0
-6 4 3 10 19 12 23 12 15 0z m1594 -33 c-2 -1 -13 -9 -24 -17 -19 -14 -19 -14
-6 3 7 9 18 17 24 17 6 0 8 -1 6 -3z m-1539 -29 c0 -17 -2 -18 -15 -4 -8 8
-15 16 -15 19 0 2 7 4 15 4 8 0 15 -9 15 -19z m41 -29 c-21 -21 -28 -15 -10 8
12 15 12 16 -3 10 -10 -3 -18 -2 -18 2 0 15 23 19 36 7 9 -8 8 -15 -5 -27z"/>
<path d="M5326 8394 c-14 -58 -33 -74 -82 -74 l-45 0 34 -33 c34 -32 35 -34
26 -82 -5 -26 -8 -50 -6 -52 2 -1 19 8 37 22 43 31 53 31 96 -1 l35 -27 -6 44
c-4 24 -8 49 -10 56 -2 7 9 23 25 37 17 14 30 27 30 30 0 3 -17 6 -37 8 -34 3
-41 8 -64 52 l-26 48 -7 -28z"/>
<path d="M5797 8292 c-53 -58 28 -137 83 -82 24 24 25 48 4 78 -19 27 -64 29
-87 4z"/>
<path d="M5012 8273 c-22 -4 -42 -37 -42 -68 0 -19 40 -55 61 -55 25 0 69 39
69 61 0 20 -42 70 -57 68 -4 -1 -18 -4 -31 -6z"/>
<path d="M5661 8223 c-1 -13 -14 -32 -31 -45 -35 -26 -37 -34 -9 -43 11 -4 25
-19 31 -33 11 -25 12 -25 15 -6 2 11 18 28 35 38 l30 18 -26 22 c-14 11 -30
32 -35 46 -9 24 -10 24 -10 3z"/>
<path d="M4707 8166 c-23 -49 -92 -87 -159 -89 -62 -1 -101 10 -92 25 5 7 2 8
-5 3 -8 -4 -25 4 -43 21 l-31 29 6 -73 c13 -163 136 -244 269 -179 68 34 100
80 106 153 4 52 -13 144 -27 144 -4 0 -15 -15 -24 -34z"/>
<path d="M3990 8098 c-12 -33 -24 -46 -57 -62 -45 -22 -54 -36 -25 -36 27 -1
72 -46 86 -87 l13 -38 20 46 c19 43 65 78 105 79 7 1 -8 12 -33 25 -35 18 -52
35 -68 70 -11 25 -22 45 -24 45 -1 0 -9 -19 -17 -42z"/>
<path d="M6041 7934 c-59 -50 -46 -150 23 -179 103 -43 195 65 136 160 -32 53
-109 62 -159 19z"/>
<path d="M4187 7840 c-3 -8 -8 -26 -11 -40 -8 -35 -61 -97 -104 -120 -32 -17
-34 -19 -14 -20 53 -1 96 -47 126 -133 8 -25 22 -14 30 24 9 45 42 86 81 100
l35 13 -30 12 c-33 14 -76 77 -95 138 -8 26 -14 35 -18 26z"/>
<path d="M5313 7393 c9 -2 25 -2 35 0 9 3 1 5 -18 5 -19 0 -27 -2 -17 -5z"/>
<path d="M5418 7383 c7 -3 16 -2 19 1 4 3 -2 6 -13 5 -11 0 -14 -3 -6 -6z"/>
<path d="M5468 7373 c7 -3 16 -2 19 1 4 3 -2 6 -13 5 -11 0 -14 -3 -6 -6z"/>
<path d="M2370 6660 c-12 -12 -20 -33 -20 -53 0 -90 124 -94 145 -5 15 60 -80
103 -125 58z"/>
<path d="M8112 6663 c-52 -44 -24 -123 43 -123 36 0 75 36 75 70 0 10 -9 29
-21 44 -24 31 -67 35 -97 9z"/>
<path d="M2883 6440 c6 -22 15 -40 19 -40 4 0 5 -8 2 -17 -5 -15 -4 -15 4 -3
8 10 8 18 0 27 -5 7 -8 19 -5 27 3 8 -2 21 -12 30 -18 16 -18 15 -8 -24z"/>
<path d="M2910 6431 c0 -6 5 -13 10 -16 6 -3 10 1 10 9 0 9 -4 16 -10 16 -5 0
-10 -4 -10 -9z"/>
<path d="M2926 6379 c-22 -45 -20 -50 5 -11 12 18 19 35 16 38 -3 3 -12 -9
-21 -27z"/>
<path d="M2961 6396 c2 -2 15 -9 29 -15 24 -11 24 -11 6 3 -16 13 -49 24 -35
12z"/>
<path d="M2950 6370 c0 -5 5 -10 11 -10 5 0 7 5 4 10 -3 6 -8 10 -11 10 -2 0
-4 -4 -4 -10z"/>
<path d="M2964 6335 c-12 -8 -23 -12 -26 -10 -2 2 -4 -6 -5 -18 0 -12 1 -16 4
-9 3 8 19 22 37 33 17 10 26 19 21 19 -6 0 -20 -7 -31 -15z"/>
<path d="M3095 6250 c-3 -5 -1 -10 4 -10 6 0 11 5 11 10 0 6 -2 10 -4 10 -3 0
-8 -4 -11 -10z"/>
<path d="M2969 6225 c17 -33 31 -51 31 -40 0 6 -10 21 -21 35 -13 17 -17 18
-10 5z"/>
<path d="M2995 6230 c-5 -8 -4 -11 2 -7 15 9 25 -21 14 -41 -6 -12 -4 -24 9
-39 15 -19 19 -20 24 -7 3 8 2 13 -3 10 -5 -3 -14 1 -20 8 -8 9 -8 17 -2 20 5
3 11 1 13 -5 2 -7 4 5 4 26 0 21 -2 33 -4 26 -3 -8 -8 -7 -16 5 -10 13 -15 14
-21 4z"/>
<path d="M3090 6110 c0 -5 5 -10 10 -10 6 0 10 5 10 10 0 6 -4 10 -10 10 -5 0
-10 -4 -10 -10z"/>
<path d="M3070 6080 c6 -11 13 -20 16 -20 2 0 0 9 -6 20 -6 11 -13 20 -16 20
-2 0 0 -9 6 -20z"/>
<path d="M3104 6061 c0 -10 6 -23 14 -30 10 -10 12 -7 6 16 -5 23 -4 26 7 16
16 -16 38 -18 23 -3 -19 19 -50 19 -50 1z"/>
<path d="M3172 6040 c-13 -11 -22 -24 -20 -30 2 -6 16 3 33 20 32 33 23 40
-13 10z"/>
<path d="M3190 6001 c0 -7 -4 -9 -10 -6 -5 3 -10 1 -10 -4 0 -6 4 -11 9 -11
13 0 25 20 17 27 -3 4 -6 1 -6 -6z"/>
<path d="M3200 5973 c0 -5 17 -18 38 -30 35 -20 38 -20 38 -3 0 10 -6 16 -13
13 -7 -3 -24 2 -38 11 -14 9 -25 13 -25 9z"/>
<path d="M3491 5960 c0 -8 4 -24 9 -35 5 -13 9 -14 9 -5 0 8 -4 24 -9 35 -5
13 -9 14 -9 5z"/>
<path d="M3337 5899 c7 -7 15 -10 18 -7 3 3 -2 9 -12 12 -14 6 -15 5 -6 -5z"/>
<path d="M7096 6044 c-11 -29 -6 -90 9 -110 13 -17 14 -16 4 14 -6 18 -9 51
-6 73 5 41 3 49 -7 23z"/>
<path d="M5378 5833 c7 -3 16 -2 19 1 4 3 -2 6 -13 5 -11 0 -14 -3 -6 -6z"/>
<path d="M5208 5823 c7 -3 16 -2 19 1 4 3 -2 6 -13 5 -11 0 -14 -3 -6 -6z"/>
<path d="M5425 5820 c4 -6 11 -8 16 -5 14 9 11 15 -7 15 -8 0 -12 -5 -9 -10z"/>
<path d="M5328 5803 c7 -3 16 -2 19 1 4 3 -2 6 -13 5 -11 0 -14 -3 -6 -6z"/>
<path d="M4740 5519 c0 -5 5 -7 10 -4 6 3 10 8 10 11 0 2 -4 4 -10 4 -5 0 -10
-5 -10 -11z"/>
<path d="M4701 5454 c0 -11 3 -14 6 -6 3 7 2 16 -1 19 -3 4 -6 -2 -5 -13z"/>
<path d="M2545 5680 c-3 -5 -1 -10 4 -10 6 0 11 5 11 10 0 6 -2 10 -4 10 -3 0
-8 -4 -11 -10z"/>
<path d="M2793 5675 c0 -8 4 -12 9 -9 5 3 6 10 3 15 -9 13 -12 11 -12 -6z"/>
<path d="M5343 5413 c9 -2 23 -2 30 0 6 3 -1 5 -18 5 -16 0 -22 -2 -12 -5z"/>
<path d="M5153 5359 c-46 -29 -41 -36 5 -8 46 28 47 29 36 29 -5 0 -24 -10
-41 -21z"/>
<path d="M5524 5303 c2 -9 12 -17 24 -18 28 -2 27 -1 -2 18 -22 15 -24 15 -22
0z"/>
<path d="M5014 5248 l-19 -23 23 19 c21 18 27 26 19 26 -2 0 -12 -10 -23 -22z"/>
<path d="M5382 5235 c21 -31 24 -33 32 -16 5 12 4 26 -3 37 -9 16 -10 14 -5
-11 l5 -30 -18 28 c-10 15 -21 27 -25 27 -5 0 2 -16 14 -35z"/>
<path d="M5646 5212 c-3 -5 1 -9 9 -9 8 0 12 4 9 9 -3 4 -7 8 -9 8 -2 0 -6 -4
-9 -8z"/>
<path d="M4959 5173 l-24 -26 27 19 c15 10 28 22 28 27 0 12 -5 8 -31 -20z"/>
<path d="M5150 5179 c0 -5 5 -7 10 -4 6 3 10 8 10 11 0 2 -4 4 -10 4 -5 0 -10
-5 -10 -11z"/>
<path d="M5128 5135 c2 -14 6 -25 8 -25 2 0 4 11 4 25 0 14 -4 25 -9 25 -4 0
-6 -11 -3 -25z"/>
<path d="M4905 5090 c-3 -5 -1 -10 4 -10 6 0 11 5 11 10 0 6 -2 10 -4 10 -3 0
-8 -4 -11 -10z"/>
<path d="M4886 5053 c-6 -14 -5 -15 5 -6 7 7 10 15 7 18 -3 3 -9 -2 -12 -12z"/>
<path d="M4861 4984 c0 -11 3 -14 6 -6 3 7 2 16 -1 19 -3 4 -6 -2 -5 -13z"/>
<path d="M5536 4947 c3 -10 9 -15 12 -12 3 3 0 11 -7 18 -10 9 -11 8 -5 -6z"/>
<path d="M4970 4851 c0 -6 4 -13 10 -16 6 -3 7 1 4 9 -7 18 -14 21 -14 7z"/>
<path d="M3848 4743 c7 -3 16 -2 19 1 4 3 -2 6 -13 5 -11 0 -14 -3 -6 -6z"/>
<path d="M3928 4733 c7 -3 16 -2 19 1 4 3 -2 6 -13 5 -11 0 -14 -3 -6 -6z"/>
<path d="M7898 5173 c7 -3 16 -2 19 1 4 3 -2 6 -13 5 -11 0 -14 -3 -6 -6z"/>
<path d="M8138 5163 c7 -3 16 -2 19 1 4 3 -2 6 -13 5 -11 0 -14 -3 -6 -6z"/>
<path d="M8170 5151 c-25 -7 -25 -7 -2 -13 12 -3 22 -2 22 2 0 5 8 11 18 13
11 3 12 5 2 5 -8 0 -26 -3 -40 -7z"/>
<path d="M7645 5140 c27 -12 43 -12 25 0 -8 5 -22 9 -30 9 -10 0 -8 -3 5 -9z"/>
<path d="M7708 5143 c7 -3 16 -2 19 1 4 3 -2 6 -13 5 -11 0 -14 -3 -6 -6z"/>
<path d="M7818 5133 c7 -3 16 -2 19 1 4 3 -2 6 -13 5 -11 0 -14 -3 -6 -6z"/>
<path d="M8266 5131 c-4 -5 3 -7 14 -4 23 6 26 13 6 13 -8 0 -17 -4 -20 -9z"/>
<path d="M8355 5110 c27 -12 43 -12 25 0 -8 5 -22 9 -30 9 -10 0 -8 -3 5 -9z"/>
<path d="M7490 5106 c0 -2 7 -7 16 -10 8 -3 12 -2 9 4 -6 10 -25 14 -25 6z"/>
<path d="M7450 5090 c-9 -6 -10 -10 -3 -10 6 0 15 5 18 10 8 12 4 12 -15 0z"/>
<path d="M8419 5091 c11 -7 11 -9 0 -13 -8 -3 -2 -5 14 -5 25 0 26 1 10 13
-10 7 -22 13 -28 14 -5 0 -4 -4 4 -9z"/>
<path d="M8480 5060 c8 -5 20 -10 25 -10 6 0 3 5 -5 10 -8 5 -19 10 -25 10 -5
0 -3 -5 5 -10z"/>
<path d="M8358 5053 c7 -3 16 -2 19 1 4 3 -2 6 -13 5 -11 0 -14 -3 -6 -6z"/>
<path d="M7325 5031 c-3 -5 0 -13 6 -17 8 -5 9 -3 4 6 -6 10 -4 12 9 7 10 -4
15 -3 11 3 -8 13 -22 13 -30 1z"/>
<path d="M8240 5026 c0 -2 11 -6 25 -8 13 -3 22 -1 19 3 -5 9 -44 13 -44 5z"/>
<path d="M7280 4999 c-22 -18 -22 -19 -3 -10 12 6 25 16 28 21 9 15 3 12 -25
-11z"/>
<path d="M7142 4925 c-1 -19 3 -25 18 -25 24 0 28 35 4 44 -9 3 -17 6 -18 6
-1 0 -3 -11 -4 -25z"/>
<path d="M7080 4900 c-15 -10 -14 -11 28 -15 25 -3 30 10 6 19 -19 7 -16 8
-34 -4z"/>
<path d="M7190 4902 c0 -6 5 -14 10 -17 6 -4 7 -11 4 -17 -4 -7 -2 -8 5 -4 9
6 9 12 -1 24 -7 10 -14 19 -15 21 -2 2 -3 -1 -3 -7z"/>
<path d="M6968 4823 c6 -2 18 -2 25 0 6 3 1 5 -13 5 -14 0 -19 -2 -12 -5z"/>
<path d="M6780 4790 c-9 -6 -10 -10 -3 -10 6 0 15 5 18 10 8 12 4 12 -15 0z"/>
<path d="M7064 4678 l-19 -23 23 19 c12 11 22 21 22 23 0 8 -8 2 -26 -19z"/>
<path d="M6197 4569 c7 -7 15 -10 18 -7 3 3 -2 9 -12 12 -14 6 -15 5 -6 -5z"/>
<path d="M5461 3924 c0 -11 3 -14 6 -6 3 7 2 16 -1 19 -3 4 -6 -2 -5 -13z"/>
<path d="M5322 3820 c0 -14 2 -19 5 -12 2 6 2 18 0 25 -3 6 -5 1 -5 -13z"/>
<path d="M5390 3771 c0 -8 -7 -11 -17 -6 -15 5 -16 4 -5 -6 9 -10 15 -10 24
-1 6 6 9 15 5 19 -4 3 -7 1 -7 -6z"/>
<path d="M5310 3687 c0 -31 4 -57 10 -57 5 0 7 22 3 53 -8 71 -13 72 -13 4z"/>
<path d="M5340 3669 c0 -5 5 -7 10 -4 6 3 10 8 10 11 0 2 -4 4 -10 4 -5 0 -10
-5 -10 -11z"/>
<path d="M2479 3598 c-11 -10 -17 -18 -11 -18 6 0 17 6 24 13 7 7 31 12 53 11
22 0 49 2 60 6 12 5 -6 7 -42 6 -43 -1 -69 -6 -84 -18z"/>
<path d="M2550 3580 c25 -8 97 -13 89 -6 -2 2 -29 6 -59 9 -36 4 -46 3 -30 -3z"/>
<path d="M2368 3563 c-16 -2 -28 -11 -28 -19 0 -20 20 -17 50 6 14 11 21 19
15 18 -5 0 -22 -3 -37 -5z"/>
<path d="M6651 4161 c-8 -5 -21 -7 -29 -3 -10 4 -13 1 -8 -7 5 -8 18 -10 39
-5 18 5 66 7 107 6 49 -1 68 1 55 7 -27 11 -147 13 -164 2z"/>
<path d="M6875 4150 c-3 -4 14 -10 38 -14 64 -9 155 -16 132 -10 -11 2 -36 9
-55 14 -56 14 -109 19 -115 10z"/>
<path d="M6576 4143 c-3 -4 -16 -8 -28 -10 -12 -2 -34 -11 -48 -20 -14 -10
-28 -17 -32 -15 -16 4 -102 -47 -104 -63 -2 -15 -1 -15 19 -1 12 9 29 19 37
23 8 4 20 14 27 22 6 9 15 13 19 9 4 -4 19 1 34 12 34 24 39 25 56 3 13 -17
14 -17 8 0 -5 13 -1 20 15 24 11 3 21 9 21 14 0 11 -14 12 -24 2z m-181 -93
c-3 -5 -12 -10 -18 -10 -7 0 -6 4 3 10 19 12 23 12 15 0z"/>
<path d="M6968 4103 c7 -3 16 -2 19 1 4 3 -2 6 -13 5 -11 0 -14 -3 -6 -6z"/>
<path d="M6608 4093 c7 -3 16 -2 19 1 4 3 -2 6 -13 5 -11 0 -14 -3 -6 -6z"/>
<path d="M6952 4068 c22 -6 43 -6 53 -1 11 6 -1 9 -37 9 -52 1 -52 1 -16 -8z"/>
<path d="M7628 4073 c7 -3 16 -2 19 1 4 3 -2 6 -13 5 -11 0 -14 -3 -6 -6z"/>
<path d="M7738 4063 c7 -3 16 -2 19 1 4 3 -2 6 -13 5 -11 0 -14 -3 -6 -6z"/>
<path d="M7043 4053 c9 -2 25 -2 35 0 9 3 1 5 -18 5 -19 0 -27 -2 -17 -5z"/>
<path d="M6265 3980 c-3 -6 1 -7 9 -4 18 7 21 14 7 14 -6 0 -13 -4 -16 -10z"/>
<path d="M6286 3965 c-11 -8 -15 -15 -9 -15 6 0 16 7 23 15 16 19 11 19 -14 0z"/>
<path d="M6214 3944 c-18 -14 -18 -15 4 -4 12 6 22 13 22 15 0 8 -5 6 -26 -11z"/>
<path d="M5706 2671 c-9 -14 4 -41 20 -41 19 0 18 16 -2 24 -8 3 -12 10 -9 16
3 5 4 10 1 10 -3 0 -7 -4 -10 -9z"/>
<path d="M5600 2582 c-17 -13 -19 -19 -8 -19 8 0 20 9 27 19 6 10 9 18 7 18
-2 0 -14 -8 -26 -18z"/>
<path d="M5566 2548 c5 -7 2 -9 -8 -5 -12 4 -14 1 -11 -13 3 -10 12 -21 20
-25 13 -4 14 -3 4 9 -10 11 -9 16 5 24 15 8 15 9 0 15 -12 5 -15 3 -10 -5z"/>
<path d="M7743 3169 c-89 -26 -97 -151 -12 -195 77 -39 159 22 149 111 -4 35
-29 73 -52 80 -44 13 -53 13 -85 4z"/>
<path d="M7554 2983 c-70 -13 -90 -137 -30 -185 28 -23 95 -23 122 0 55 46 59
109 10 158 -33 33 -50 37 -102 27z"/>
<path d="M4605 2221 c-3 -5 -1 -12 5 -16 5 -3 10 -3 10 1 0 4 12 -3 28 -17 26
-23 26 -23 -2 9 -33 36 -33 36 -41 23z"/>
<path d="M4644 2149 c-8 -14 14 -19 25 -6 8 10 7 14 -5 14 -8 0 -17 -4 -20 -8z"/>
<path d="M4685 2141 c-3 -6 -1 -11 5 -11 6 0 9 -4 5 -9 -3 -5 -1 -12 4 -16 6
-3 8 4 6 16 -5 27 -11 33 -20 20z"/>
<path d="M4719 2068 c-11 -8 -11 -9 3 -5 9 3 19 3 22 -1 4 -3 15 -6 27 -7 11
-1 16 2 11 7 -14 14 -48 17 -63 6z"/>
<path d="M4725 2040 c-7 -11 -8 -11 23 -14 13 -2 26 2 29 8 3 6 3 8 -2 4 -4
-4 -16 -3 -26 2 -12 7 -20 7 -24 0z"/>
<path d="M4770 2010 c-9 -6 -10 -10 -3 -10 6 0 15 5 18 10 8 12 4 12 -15 0z"/>
<path d="M4720 2000 c-12 -8 -10 -10 8 -10 13 0 20 4 17 10 -7 12 -6 12 -25 0z"/>
<path d="M4763 1986 c-30 -11 -31 -12 -13 -24 11 -7 23 -12 27 -12 5 0 1 5 -7
10 -11 7 -12 10 -2 10 7 0 20 7 28 15 18 17 12 17 -33 1z"/>
<path d="M4920 1913 c0 -6 8 -17 18 -24 16 -13 16 -13 2 6 -8 11 -16 22 -17
24 -2 2 -3 0 -3 -6z"/>
<path d="M4959 1868 c-5 -16 -4 -46 2 -42 4 2 7 13 6 24 -1 17 -5 26 -8 18z"/>
<path d="M4925 1800 c3 -5 8 -10 11 -10 2 0 4 5 4 10 0 6 -5 10 -11 10 -5 0
-7 -4 -4 -10z"/>
<path d="M5040 1786 c0 -2 8 -10 18 -17 15 -13 16 -12 3 4 -13 16 -21 21 -21
13z"/>
<path d="M5042 1754 c10 -10 20 -16 22 -13 3 3 -5 11 -17 18 -21 13 -21 12 -5
-5z"/>
<path d="M5070 1728 c-12 -8 -12 -9 2 -4 10 3 22 -2 27 -12 6 -9 11 -12 11 -6
0 20 -24 34 -40 22z"/>
<path d="M4222 2055 c-9 -11 -9 -15 -1 -15 6 0 8 -7 5 -16 -5 -13 -4 -14 7 -6
19 16 30 3 15 -17 -7 -9 -2 -7 11 4 23 19 24 19 17 1 -5 -16 -4 -17 9 -6 12
10 13 15 3 21 -6 4 -15 6 -19 3 -4 -2 -10 0 -14 6 -3 5 -2 10 4 10 6 0 8 7 5
15 -6 14 -8 13 -20 -2 -13 -17 -14 -17 -8 0 7 21 3 21 -14 2z"/>
<path d="M4263 1957 c4 -10 7 -22 7 -27 0 -4 6 -10 14 -13 19 -7 9 28 -12 45
-13 11 -15 10 -9 -5z"/>
<path d="M6473 2178 c-4 -7 -6 -22 -5 -33 2 -15 1 -17 -6 -6 -7 9 -12 10 -16
2 -4 -6 -2 -11 3 -11 6 0 14 0 19 0 4 0 8 8 8 18 3 35 4 37 14 22 6 -9 10 -10
10 -3 0 18 -18 25 -27 11z"/>
<path d="M6188 1823 c7 -3 16 -2 19 1 4 3 -2 6 -13 5 -11 0 -14 -3 -6 -6z"/>
</g>
</svg>
