<?xml version="1.0" standalone="no"?>
<!DOCTYPE svg PUBLIC "-//W3C//DTD SVG 20010904//EN"
 "http://www.w3.org/TR/2001/REC-SVG-20010904/DTD/svg10.dtd">
<svg version="1.0" xmlns="http://www.w3.org/2000/svg"
 width="1024.000000pt" height="576.000000pt" viewBox="0 0 1024.000000 576.000000"
 preserveAspectRatio="xMidYMid meet">

<g transform="translate(0.000000,576.000000) scale(0.100000,-0.100000)"
fill="#000000" stroke="none">
<path d="M0 2880 l0 -2880 3724 0 c2970 0 3726 3 3730 13 5 9 7 9 12 0 4 -8
27 -13 66 -13 51 0 59 2 54 16 -3 9 -6 44 -6 79 l0 62 -50 7 c-74 10 -103 23
-96 42 4 9 2 220 -3 468 -6 248 -13 575 -16 726 -3 151 -8 395 -11 541 l-7
266 40 0 c21 0 74 4 116 7 56 6 77 5 77 -4 0 -9 33 -10 128 -4 70 4 137 8 150
7 13 0 22 5 22 13 0 9 -12 14 -36 14 l-36 0 6 176 6 176 72 81 c39 45 76 85
83 89 6 4 74 14 150 23 181 22 488 22 531 1 16 -8 66 -50 112 -93 l83 -78 14
-110 c8 -60 15 -130 15 -155 1 -73 1 -73 131 -61 194 18 297 23 302 14 6 -10
23 -132 68 -498 17 -137 33 -254 37 -260 3 -5 5 -22 4 -36 -3 -26 22 -324 74
-869 37 -393 43 -456 50 -553 4 -53 11 -86 17 -84 20 6 59 152 71 267 17 165
5 310 -38 448 -74 237 -99 388 -112 687 -3 88 -9 196 -11 240 -3 44 -4 107 -4
140 2 53 -1 64 -24 85 -14 13 -25 31 -25 39 0 9 19 50 41 91 37 67 40 80 35
122 -4 26 -18 72 -32 103 -23 50 -25 61 -15 100 17 67 14 84 -30 165 -22 41
-51 98 -65 125 -14 28 -35 66 -47 85 -12 19 -31 50 -42 68 -109 182 -124 198
-190 209 -39 6 -66 26 -217 164 -35 32 -131 84 -333 180 -115 55 -249 130
-254 142 -2 5 -15 19 -28 31 -45 38 -52 72 -46 218 9 217 -22 753 -53 901 -4
17 -10 25 -17 20 -7 -4 -5 2 3 12 12 15 12 17 1 10 -11 -6 -13 -3 -7 16 42
136 31 234 -46 413 -16 38 -47 137 -69 220 -35 138 -102 361 -128 429 l-11 27
-3960 0 -3960 0 0 -2880z m7866 2091 c65 -10 134 -46 134 -71 0 -8 9 -21 20
-28 21 -13 29 -72 10 -72 -5 0 -10 -7 -10 -15 0 -9 -8 -19 -17 -22 -24 -9
-132 -81 -161 -107 -13 -11 -42 -25 -64 -31 -54 -13 -57 -26 -11 -46 33 -14
39 -23 51 -70 7 -30 17 -74 21 -99 8 -53 17 -70 36 -70 8 0 16 -16 20 -39 4
-22 14 -42 22 -46 14 -5 14 -7 -3 -19 -38 -25 -114 -48 -141 -42 -16 3 -49 7
-76 8 -37 1 -54 7 -77 30 -28 27 -32 28 -58 14 -22 -12 -145 -105 -162 -123
-3 -3 7 -3 23 -1 33 6 35 -8 6 -56 -35 -59 -17 -78 81 -90 28 -3 85 -15 114
-23 15 -4 18 -1 13 16 -3 14 0 21 10 21 8 0 17 -10 21 -22 l5 -22 9 23 c6 16
14 22 27 18 10 -2 25 0 34 5 11 5 24 5 37 -2 14 -8 25 -7 40 2 17 11 22 11 30
-1 7 -12 11 -12 24 -2 13 11 16 11 16 -3 0 -9 -6 -16 -13 -16 -7 0 -18 -5 -25
-12 -13 -13 -16 -13 -94 -16 -85 -3 -51 -20 37 -19 47 1 85 -2 85 -6 0 -15
-69 -37 -115 -37 -25 0 -45 -4 -45 -10 0 -5 4 -10 10 -10 5 0 7 -7 4 -15 -4
-8 -17 -15 -30 -15 -37 0 -33 -44 6 -62 17 -7 30 -16 30 -19 0 -15 63 -18 83
-4 11 8 47 17 79 21 51 6 61 10 73 35 8 15 15 36 15 45 0 10 3 14 7 10 9 -9
10 -96 1 -96 -4 0 -5 -6 -2 -13 9 -24 -48 -72 -90 -75 -25 -3 -36 0 -32 7 4 7
1 9 -8 5 -9 -3 -16 -1 -16 5 0 19 -22 12 -47 -15 -13 -14 -30 -23 -38 -20 -9
3 -12 0 -9 -9 4 -9 0 -12 -14 -8 -11 2 -23 0 -27 -7 -5 -8 -11 -8 -22 1 -12
10 -16 10 -23 -1 -7 -11 -12 -11 -23 -2 -7 7 -16 9 -20 6 -11 -12 -80 19 -108
49 -16 17 -40 31 -54 32 -30 1 -65 32 -58 51 3 8 0 14 -6 14 -6 0 -11 7 -11
15 0 26 -34 95 -47 95 -7 0 -18 19 -24 43 -8 35 -15 43 -32 42 -23 -2 -47 32
-47 66 0 11 -4 19 -9 19 -5 0 -14 14 -20 30 -5 17 -17 30 -25 30 -9 0 -16 3
-17 8 0 4 -3 16 -6 27 -3 11 -5 53 -4 93 2 46 -1 72 -8 72 -6 0 -11 -20 -11
-46 0 -52 -24 -59 -27 -8 l-2 29 9 -30 c7 -28 8 -28 9 13 1 27 -3 41 -9 37 -6
-4 -9 -3 -8 2 1 4 -4 19 -11 31 -9 17 -12 59 -9 146 3 119 4 122 36 166 17 24
32 53 32 63 0 13 5 17 14 14 10 -4 13 -1 9 9 -3 7 -1 14 4 14 5 0 17 14 27 30
18 32 105 82 162 94 19 4 35 16 42 31 7 14 15 25 19 26 5 0 69 9 143 19 157
21 203 23 286 11z m151 -433 c-3 -8 -6 -5 -6 6 -1 11 2 17 5 13 3 -3 4 -12 1
-19z m30 0 c-3 -8 -6 -5 -6 6 -1 11 2 17 5 13 3 -3 4 -12 1 -19z m-1175 -38
c6 0 37 -9 68 -21 58 -21 88 -54 95 -102 1 -12 8 -44 14 -72 7 -27 11 -63 10
-80 -1 -16 3 -43 10 -58 16 -41 14 -55 -13 -73 -23 -14 -28 -14 -60 1 -49 24
-100 83 -121 141 -9 27 -21 58 -25 69 -5 11 -12 39 -15 61 -5 33 -3 43 11 48
10 4 22 0 30 -11 13 -17 13 -17 14 0 0 22 6 22 41 -4 27 -19 40 -49 20 -49
-11 0 -44 -50 -38 -56 2 -3 23 1 46 8 44 14 70 53 56 85 -7 17 -8 17 -12 1 -3
-13 -19 -5 -75 40 -39 31 -76 56 -81 54 -5 -2 -7 4 -3 13 3 9 7 24 7 33 1 10
4 8 6 -5 2 -13 9 -23 15 -23z m1158 -70 c3 -1 -6 -6 -20 -10 -16 -6 -2 -7 38
-3 61 6 63 5 92 -27 33 -37 36 -49 18 -69 -9 -10 -9 -12 -1 -7 13 7 7 -56 -9
-86 -9 -19 -28 -24 -28 -9 0 12 -43 1 -52 -12 -4 -7 -11 -7 -21 1 -7 7 -18 8
-22 4 -5 -4 -5 1 -2 11 4 9 2 17 -3 17 -18 0 -129 114 -139 143 -21 54 -18 57
67 53 42 -2 79 -5 82 -6z m-376 -255 c11 -17 12 -26 5 -31 -6 -4 -15 -1 -19 6
-5 8 -9 7 -13 -4 -5 -12 -14 -15 -30 -11 -17 5 -26 2 -30 -8 -4 -10 -13 -13
-26 -10 -12 3 -21 1 -21 -6 0 -6 -4 -11 -10 -11 -25 0 -6 44 36 85 44 42 48
43 70 29 12 -9 30 -26 38 -39z m99 -90 c102 -10 82 -29 -34 -32 -52 -1 -109
-6 -126 -12 -20 -6 -35 -6 -38 0 -4 5 0 9 9 9 8 0 16 5 18 11 5 14 67 38 88
33 8 -1 46 -5 83 -9z m-605 -158 c64 -170 201 -370 270 -395 15 -5 49 -16 75
-25 27 -9 70 -33 98 -54 44 -34 49 -41 44 -68 -6 -34 -29 -55 -60 -55 -12 0
-34 -13 -48 -30 -15 -16 -23 -30 -18 -30 4 0 8 -25 7 -55 l-1 -55 -35 6 c-62
10 -67 14 -112 72 -23 31 -46 59 -50 60 -5 2 -8 8 -8 13 0 5 -21 35 -46 66
-46 56 -80 120 -70 130 3 3 -2 19 -10 35 -9 18 -13 41 -10 57 5 17 4 22 -3 12
-12 -18 -24 35 -37 159 -3 30 -9 69 -13 85 -12 49 -14 138 -2 131 5 -4 19 -30
29 -59z m812 -27 c0 -20 -25 -38 -37 -26 -5 5 24 46 34 46 1 0 3 -9 3 -20z
m-2648 -1855 c14 -33 42 -84 62 -113 l38 -52 99 0 c86 0 102 -3 119 -20 20
-20 25 -47 12 -65 -11 -16 -75 -36 -81 -26 -8 13 -281 13 -281 0 0 -6 -28 -8
-77 -4 -107 9 -103 9 -147 -8 -23 -8 -43 -24 -48 -36 -9 -25 -16 -22 107 -49
50 -11 102 -25 116 -30 30 -12 45 -50 24 -58 -8 -3 -12 -11 -9 -19 7 -17 -33
-26 -46 -10 -6 7 -8 19 -5 27 4 9 0 15 -10 15 -8 0 -15 -5 -15 -10 0 -6 -9 -2
-19 7 -11 10 -25 15 -31 11 -15 -9 -247 -14 -312 -7 l-48 5 0 43 c0 23 5 46
10 49 6 4 7 11 4 17 -4 7 -9 6 -13 -1 -5 -8 -14 -5 -27 10 -19 21 -19 21 5 40
17 14 22 25 17 43 -4 15 -1 26 7 29 7 4 3 8 -10 12 -13 4 -23 11 -23 16 0 5
-10 9 -22 9 -12 0 -18 3 -15 7 4 3 2 12 -4 19 -8 10 -7 18 5 29 9 9 16 27 16
40 0 22 76 105 116 128 8 5 73 7 144 5 l129 -3 30 -35 c17 -19 30 -40 31 -47
0 -7 7 -10 15 -7 8 3 29 1 46 -5 55 -19 43 -5 -21 25 -67 31 -77 46 -26 37 22
-3 42 0 60 12 14 10 26 13 26 9 0 -5 5 -1 11 9 13 23 12 25 41 -48z m-577
-217 c6 -4 2 -8 -7 -8 -10 0 -18 7 -18 17 0 9 3 12 8 7 4 -5 12 -12 17 -16z
m790 -98 c4 -6 -10 -10 -35 -10 -25 0 -39 -4 -35 -10 4 -6 -13 -10 -44 -10
-28 0 -51 4 -51 8 0 24 151 44 165 22z m-155 -44 c0 -2 -7 -7 -16 -10 -8 -3
-12 -2 -9 4 6 10 25 14 25 6z m480 -48 c0 -7 -11 -14 -25 -14 -31 -2 -33 13
-2 19 12 2 23 5 25 6 1 0 2 -5 2 -11z m-1000 -139 c0 -5 -4 -9 -10 -9 -5 0
-10 7 -10 16 0 8 5 12 10 9 6 -3 10 -10 10 -16z m232 1 c59 -6 119 -15 133
-20 33 -12 33 -48 0 -86 -14 -16 -25 -23 -25 -16 0 6 -5 12 -12 12 -6 0 -19 7
-28 15 -10 9 -44 17 -87 19 -157 10 -196 24 -173 65 13 25 34 26 192 11z m121
-205 c-3 -9 -8 -14 -10 -11 -3 3 -2 9 2 15 9 16 15 13 8 -4z m2304 -1237 c-3
-8 -6 -5 -6 6 -1 11 2 17 5 13 3 -3 4 -12 1 -19z m50 -4 c-3 -3 -12 -4 -19 -1
-8 3 -5 6 6 6 11 1 17 -2 13 -5z"/>
<path d="M7373 4690 c-46 -10 -133 -96 -133 -131 0 -28 23 -55 39 -45 5 3 7
15 4 26 -5 21 4 25 31 14 13 -5 12 -9 -7 -26 -16 -14 -18 -21 -9 -25 11 -4 10
-8 -2 -22 -18 -20 -16 -20 112 -21 49 -1 80 -5 77 -11 -4 -5 0 -9 7 -9 18 0
-36 -28 -64 -32 -15 -3 -7 -7 25 -12 53 -9 92 2 138 42 28 23 41 51 17 36 -7
-4 -8 -3 -4 5 4 6 23 18 42 26 19 8 37 22 41 32 3 10 13 26 21 35 12 14 12 20
2 33 -7 8 -19 15 -26 15 -8 0 -14 5 -14 11 0 8 -4 8 -14 0 -11 -10 -16 -8 -21
8 -10 31 -31 39 -130 46 -50 4 -92 8 -95 9 -3 2 -20 0 -37 -4z m54 -99 c-15
-10 -38 -16 -51 -14 -13 3 -27 0 -30 -6 -4 -6 -15 -11 -24 -11 -34 1 32 39 73
43 22 2 45 4 50 5 6 1 -3 -6 -18 -17z m21 -49 c-26 -9 -50 -20 -54 -24 -4 -5
-12 -8 -17 -8 -11 0 31 34 53 43 8 3 26 5 40 5 18 0 12 -4 -22 -16z m69 -64
c-16 -10 -21 -2 -13 19 6 15 9 15 16 3 6 -9 5 -17 -3 -22z"/>
<path d="M7281 4114 c0 -11 3 -14 6 -6 3 7 2 16 -1 19 -3 4 -6 -2 -5 -13z"/>
<path d="M7376 4102 c-3 -6 -21 -8 -40 -5 -19 3 -36 1 -40 -6 -4 -6 -3 -11 2
-11 15 0 21 -37 9 -49 -8 -8 -8 -11 1 -11 7 0 12 5 12 10 0 6 5 10 11 10 5 0
9 -10 7 -22 -2 -15 2 -23 12 -23 9 0 16 11 18 30 2 17 10 37 17 45 8 9 11 21
6 29 -6 8 -11 9 -15 3z"/>
<path d="M7358 3978 c-7 -19 2 -38 17 -38 15 0 30 -54 20 -71 -6 -8 -2 -8 14
0 24 13 28 43 8 63 -8 7 -19 23 -26 36 -13 25 -26 28 -33 10z"/>
<path d="M7658 3893 c7 -3 16 -2 19 1 4 3 -2 6 -13 5 -11 0 -14 -3 -6 -6z"/>
<path d="M7405 3840 c-3 -5 -1 -10 4 -10 6 0 11 5 11 10 0 6 -2 10 -4 10 -3 0
-8 -4 -11 -10z"/>
<path d="M6910 4195 c7 -8 17 -15 22 -15 6 0 5 7 -2 15 -7 8 -17 15 -22 15 -6
0 -5 -7 2 -15z"/>
<path d="M4838 2073 c7 -3 16 -2 19 1 4 3 -2 6 -13 5 -11 0 -14 -3 -6 -6z"/>
<path d="M4885 1990 c22 -11 49 -31 61 -45 26 -33 135 -63 251 -70 73 -4 82
-3 82 13 -1 9 3 27 6 40 7 21 4 20 -24 -9 -31 -30 -35 -31 -88 -25 -54 6 -133
41 -133 58 0 4 -8 8 -19 8 -10 0 -21 9 -24 20 -4 15 -14 20 -39 21 -18 1 -51
2 -73 4 l-40 3 40 -18z"/>
<path d="M5211 1584 c0 -11 3 -14 6 -6 3 7 2 16 -1 19 -3 4 -6 -2 -5 -13z"/>
<path d="M5398 1713 c7 -3 16 -2 19 1 4 3 -2 6 -13 5 -11 0 -14 -3 -6 -6z"/>
<path d="M8075 2580 c2 -47 9 -145 16 -219 l12 -134 101 7 c56 4 207 13 336
21 273 16 243 13 235 25 -3 6 -19 10 -34 10 l-28 0 -7 92 c-11 162 -10 177 20
188 14 6 24 16 21 23 -4 13 -166 12 -477 -3 -96 -5 -178 -6 -182 -2 -3 4 -9
23 -12 42 -2 19 -3 -3 -1 -50z"/>
<path d="M7885 2580 c-3 -5 1 -10 9 -10 9 0 16 5 16 10 0 6 -4 10 -9 10 -6 0
-13 -4 -16 -10z"/>
<path d="M7469 2173 c-5 -60 -4 -111 2 -100 11 20 17 117 8 117 -5 0 -10 -8
-10 -17z"/>
<path d="M8758 1302 l-68 -3 -19 -42 c-10 -23 -24 -60 -31 -82 -7 -22 -18 -53
-26 -70 -7 -16 -31 -77 -53 -135 -97 -258 -124 -327 -137 -355 -17 -38 -71
-175 -94 -240 -10 -27 -32 -85 -49 -129 l-30 -78 82 7 c45 3 85 10 88 13 7 8
139 356 139 367 0 4 15 46 34 94 86 220 155 406 221 589 12 34 20 63 16 65 -3
1 -36 1 -73 -1z"/>
<path d="M8199 1271 c-77 -24 -122 -72 -144 -156 -33 -119 -6 -261 65 -349 39
-49 65 -63 131 -72 81 -11 150 40 184 137 16 45 21 189 6 189 -5 0 -12 7 -15
16 -4 9 -2 13 5 8 23 -14 -2 68 -35 120 -42 65 -60 79 -120 100 -27 9 -50 16
-50 15 -1 0 -13 -4 -27 -8z m72 -33 c-13 -4 -28 -5 -34 -1 -14 9 23 22 42 15
10 -4 8 -8 -8 -14z m-64 -8 c-1 -11 -7 -20 -14 -20 -7 0 -13 9 -13 20 0 11 6
20 14 20 9 0 14 -9 13 -20z m-50 -6 c-3 -3 -12 -4 -19 -1 -8 3 -5 6 6 6 11 1
17 -2 13 -5z m110 -11 c-10 -3 -14 -9 -10 -16 4 -7 -1 -6 -10 2 -22 17 -22 16
11 18 15 0 19 -1 9 -4z m-136 -16 c-1 -4 -1 -16 -1 -27 0 -11 -4 -20 -10 -20
-5 0 -10 14 -10 31 0 17 5 29 11 27 6 -2 10 -7 10 -11z m164 -7 c3 -5 1 -10
-4 -10 -6 0 -11 5 -11 10 0 6 2 10 4 10 3 0 8 -4 11 -10z m-95 -16 c11 -13 10
-16 -8 -21 -13 -3 -22 -13 -22 -24 0 -26 -18 -33 -46 -18 -29 15 -31 29 -4 29
11 0 20 5 20 10 0 6 10 10 23 11 12 0 16 3 10 6 -7 2 -13 9 -13 14 0 15 26 10
40 -7z m-114 -34 c0 -25 -4 -34 -9 -25 -6 12 0 65 8 65 1 0 2 -18 1 -40z m180
27 c4 -4 -5 -7 -19 -7 -15 0 -27 4 -27 10 0 11 35 8 46 -3z m57 -12 c-3 -9 -8
-14 -10 -11 -3 3 -2 9 2 15 9 16 15 13 8 -4z m-55 -26 c2 -5 9 -6 15 -2 7 3 9
3 5 -2 -4 -4 -1 -19 6 -34 19 -36 30 -131 22 -186 -8 -52 -40 -81 -77 -70 -43
14 -84 172 -65 249 10 40 43 68 69 60 12 -4 24 -11 25 -15z m-111 -171 c-3 -8
-6 -5 -6 6 -1 11 2 17 5 13 3 -3 4 -12 1 -19z m-47 -44 c0 -8 -5 -12 -10 -9
-6 4 -8 11 -5 16 9 14 15 11 15 -7z m38 -105 c-3 -8 -7 -3 -11 10 -4 17 -3 21
5 13 5 -5 8 -16 6 -23z"/>
<path d="M8774 805 c-75 -34 -121 -148 -111 -276 16 -199 114 -327 244 -317
67 6 117 43 149 112 20 42 24 67 24 142 0 141 -46 260 -124 319 -43 33 -133
43 -182 20z m121 -149 c13 -13 29 -43 36 -67 16 -56 16 -168 1 -196 -18 -34
-50 -39 -78 -12 -34 32 -48 82 -48 175 -1 67 2 86 18 103 25 27 41 27 71 -3z"/>
</g>
</svg>
